<svg width="1403" height="1391" viewBox="0 0 1403 1391" fill="none" xmlns="http://www.w3.org/2000/svg">
<path d="M999.254 509.837C984.334 529.695 963.806 544.721 940.266 553.014C916.727 561.307 891.234 562.494 867.013 556.426C842.793 550.357 820.933 537.306 804.199 518.922C787.466 500.539 776.612 477.65 773.009 453.151C769.407 428.653 773.218 403.646 783.962 381.295C794.705 358.944 811.897 340.253 833.363 327.588C854.829 314.922 879.604 308.851 904.553 310.142C929.502 311.433 953.503 320.029 973.521 334.842C1000.33 354.68 1018.1 384.253 1022.92 417.064C1027.75 449.875 1019.24 483.242 999.254 509.837Z" fill="#F0F0F0"/>
<path d="M975.149 492.012C963.771 507.147 948.119 518.597 930.174 524.915C912.228 531.233 892.795 532.136 874.332 527.508C855.869 522.88 839.205 512.93 826.449 498.916C813.693 484.903 805.418 467.455 802.669 448.78C799.921 430.105 802.824 411.042 811.01 394.002C819.196 376.961 832.297 362.71 848.658 353.049C865.018 343.389 883.902 338.754 902.921 339.73C921.941 340.706 940.24 347.25 955.506 358.534C965.649 366.013 974.204 375.401 980.682 386.16C987.16 396.92 991.434 408.839 993.258 421.237C995.083 433.634 994.423 446.267 991.315 458.411C988.208 470.556 982.714 481.974 975.149 492.012Z" fill="#F5F5F5"/>
<path d="M976.944 489.565C976.467 489.259 978.656 485.644 981.827 478.887C986.295 469.393 989.258 459.272 990.61 448.882C991.488 441.757 991.572 434.558 990.863 427.414C990.04 419.254 988.154 411.235 985.25 403.555C982.069 395.082 977.634 387.126 972.089 379.946C969.191 376.132 965.991 372.552 962.52 369.24C958.933 365.851 955.107 362.72 951.071 359.869C946.978 357.091 942.692 354.601 938.247 352.416C933.922 350.319 929.437 348.561 924.834 347.161C920.395 345.78 915.854 344.747 911.252 344.074C906.843 343.383 902.387 343.03 897.923 343.017C889.651 342.885 881.397 343.82 873.369 345.798C866.357 347.591 859.563 350.136 853.108 353.39C843.723 358.208 835.147 364.436 827.685 371.854C822.353 377.138 819.715 380.419 819.266 380.196C818.817 379.974 820.753 376.109 825.58 370.074C832.542 361.562 841.039 354.405 850.639 348.968C865.035 340.777 881.323 336.409 897.923 336.288C907.744 336.181 917.525 337.541 926.938 340.32C931.926 341.784 936.787 343.644 941.474 345.881C946.28 348.207 950.904 350.884 955.309 353.89C959.67 356.969 963.797 360.361 967.656 364.04C971.375 367.63 974.8 371.507 977.898 375.636C980.908 379.611 983.583 383.824 985.896 388.233C988.153 392.429 990.085 396.789 991.676 401.275C994.627 409.551 996.43 418.185 997.036 426.942C997.533 434.534 997.138 442.159 995.858 449.661C993.99 460.464 990.128 470.834 984.465 480.25C980.312 486.784 977.281 489.843 976.944 489.565Z" fill="#E0E0E0"/>
<path d="M872.387 486.951L862.537 500.382L850.527 491.679L860.096 478.581C848.647 469.238 839.835 457.252 836.973 447.297L854.343 437.425C857.777 447.242 863.735 456.003 871.629 462.842L886.305 442.792C875.221 429.889 863.435 414.623 876.007 397.465C885.323 384.729 902.665 380.502 923.403 392.098L933.168 378.778L945.291 387.482L935.582 400.58C943.904 407.297 950.501 415.874 954.832 425.607L937.995 436.035C934.656 428.695 929.888 422.08 923.964 416.569L909.035 436.73C920.26 449.522 931.737 464.538 919.334 481.529C910.214 494.154 893.068 498.325 872.387 486.951ZM899.101 425.134L911.589 408.088C904.125 404.89 899.017 406.558 896.127 410.535C893.237 414.511 895.004 419.628 899.101 425.134ZM898.765 469.071C901.852 464.872 899.999 460.061 896.127 454.499L883.976 471.184C891.02 474.132 895.959 472.88 898.765 469.071Z" fill="#E0E0E0"/>
<path d="M547.21 694.9C551.408 723.173 547.048 752.046 534.681 777.863C522.314 803.68 502.496 825.281 477.736 839.933C452.976 854.585 424.386 861.628 395.585 860.172C366.783 858.716 339.065 848.826 315.938 831.754C292.811 814.681 275.315 791.193 265.663 764.263C256.012 737.333 254.639 708.17 261.719 680.467C268.799 652.763 284.013 627.764 305.436 608.632C326.859 589.5 353.528 577.096 382.067 572.989C400.989 570.245 420.271 571.221 438.812 575.863C457.353 580.505 474.789 588.721 490.125 600.042C505.46 611.363 518.395 625.567 528.19 641.843C537.985 658.119 544.448 676.148 547.21 694.9Z" fill="#F0F0F0"/>
<path d="M512.891 699.822C516.105 721.367 512.796 743.374 503.384 763.055C493.971 782.736 478.878 799.207 460.014 810.384C441.15 821.561 419.364 826.94 397.414 825.841C375.464 824.742 354.336 817.215 336.705 804.211C319.074 791.208 305.732 773.313 298.369 752.792C291.005 732.271 289.951 710.046 295.34 688.931C300.729 667.817 312.318 648.761 328.64 634.176C344.963 619.591 365.285 610.133 387.035 606.999C416.145 602.774 445.757 610.18 469.358 627.586C492.959 644.993 508.618 670.976 512.891 699.822Z" fill="#F5F5F5"/>
<path d="M512.357 696.429C511.684 696.429 510.533 691.841 507.531 683.749C503.356 672.392 497.43 661.745 489.964 652.187C484.809 645.675 478.956 639.736 472.51 634.473C465.089 628.52 456.932 623.53 448.237 619.623C443.549 617.502 438.709 615.726 433.757 614.312C428.615 612.802 423.36 611.695 418.042 611.003C412.539 610.252 406.984 609.936 401.43 610.058C395.711 610.184 390.009 610.723 384.369 611.67C378.747 612.713 373.205 614.144 367.784 615.953C362.525 617.763 357.413 619.966 352.491 622.543C347.745 624.974 343.195 627.763 338.881 630.886C334.723 633.897 330.802 637.215 327.151 640.813C320.338 647.449 314.415 654.926 309.528 663.06C305.28 670.177 301.845 677.741 299.286 685.612C295.581 697.13 293.688 709.145 293.673 721.234C293.673 729.854 294.235 734.665 293.673 734.776C293.112 734.888 291.513 730.244 290.474 721.401C289.148 708.835 290.185 696.134 293.533 683.943C298.51 665.617 308.175 648.875 321.595 635.335C325.449 631.398 329.605 627.763 334.026 624.462C338.62 620.987 343.48 617.873 348.562 615.146C353.834 612.321 359.323 609.913 364.978 607.944C370.818 605.947 376.803 604.395 382.881 603.3C388.965 602.265 395.118 601.679 401.29 601.548C407.288 601.486 413.282 601.876 419.221 602.716C424.922 603.549 430.551 604.814 436.058 606.498C441.349 608.097 446.509 610.096 451.492 612.477C460.71 616.882 469.289 622.494 477 629.162C483.67 634.929 489.624 641.464 494.735 648.627C502.125 658.926 507.521 670.496 510.646 682.748C512.778 691.424 512.834 696.346 512.357 696.429Z" fill="#E0E0E0"/>
<path d="M424.917 778.769L427.976 797.706L410.942 800.487L407.968 782.078C390.906 783.746 373.845 781.077 363.294 775.293L369.355 753.185C380.24 758.377 392.293 760.695 404.348 759.915L399.774 731.662C380.13 730.132 357.962 727.213 354.061 703.047C351.255 685.139 361.806 667.676 388.268 660.362L385.238 641.592L402.299 638.811L405.274 657.22C417.582 655.964 430.015 657.612 441.557 662.031L436.394 684.277C427.623 680.92 418.264 679.331 408.866 679.605L413.524 708.359C433.167 709.749 454.971 712.697 458.815 736.528C461.706 754.103 451.182 771.372 424.917 778.769ZM395.929 706.829L392.029 682.831C383.33 686.279 380.523 691.757 381.421 697.347C382.319 702.936 387.904 705.661 395.929 706.829ZM431.848 742.98C430.866 737.057 425.422 734.637 417.817 733.247L421.577 756.578C429.603 753.296 432.606 748.319 431.736 742.924L431.848 742.98Z" fill="#E0E0E0"/>
<path d="M842.277 193.243C839.705 207.131 833.034 219.95 823.106 230.079C813.179 240.207 800.443 247.189 786.509 250.141C772.576 253.093 758.072 251.883 744.833 246.662C731.594 241.442 720.216 232.447 712.138 220.816C704.06 209.185 699.646 195.44 699.455 181.322C699.263 167.204 703.303 153.346 711.062 141.504C718.821 129.662 729.952 120.367 743.044 114.796C756.136 109.225 770.602 107.629 784.611 110.209C793.901 111.905 802.763 115.399 810.69 120.49C818.617 125.582 825.453 132.172 830.809 139.883C836.164 147.595 839.934 156.277 841.902 165.432C843.869 174.588 843.997 184.039 842.277 193.243Z" fill="#F0F0F0"/>
<path d="M825.44 190.129C823.482 200.708 818.401 210.475 810.84 218.192C803.279 225.909 793.578 231.23 782.964 233.482C772.35 235.733 761.301 234.814 751.214 230.841C741.128 226.867 732.457 220.018 726.3 211.16C720.143 202.302 716.776 191.833 716.625 181.077C716.474 170.322 719.546 159.764 725.452 150.74C731.358 141.715 739.833 134.63 749.805 130.38C759.776 126.13 770.795 124.907 781.468 126.865C795.762 129.481 808.424 137.614 816.67 149.477C824.915 161.34 828.07 175.962 825.44 190.129Z" fill="#F5F5F5"/>
<path d="M825.721 188.46C825.433 186.238 825.368 183.994 825.525 181.759C825.416 175.789 824.385 169.871 822.466 164.212C821.112 160.324 819.334 156.594 817.162 153.089C814.646 149.135 811.628 145.518 808.183 142.327C806.34 140.58 804.36 138.98 802.262 137.544C800.061 136.055 797.743 134.743 795.33 133.623C792.882 132.397 790.339 131.365 787.726 130.536C785.028 129.695 782.27 129.053 779.476 128.618C776.688 128.21 773.875 128.005 771.057 128.006C768.313 128.016 765.573 128.239 762.863 128.673C760.246 129.069 757.665 129.673 755.146 130.481C752.713 131.231 750.34 132.161 748.047 133.262C740.027 137.087 733.086 142.819 727.842 149.946C724.22 154.742 721.379 160.072 719.424 165.741C718.893 167.915 718.14 170.03 717.179 172.054C716.898 169.78 717.128 167.472 717.853 165.296C719.227 159.201 721.75 153.418 725.289 148.25C727.689 144.657 730.516 141.361 733.707 138.434C737.435 135.063 741.608 132.21 746.111 129.952C748.542 128.715 751.065 127.664 753.659 126.81C756.409 125.914 759.223 125.226 762.078 124.752C764.997 124.253 767.954 123.992 770.917 123.974C777.036 123.912 783.122 124.852 788.932 126.754C791.777 127.612 794.546 128.7 797.211 130.008C802.184 132.545 806.751 135.796 810.764 139.657C814.372 143.157 817.487 147.123 820.025 151.448C822.25 155.192 824.012 159.188 825.272 163.35C827.077 169.331 827.743 175.592 827.236 181.814C827.219 184.112 826.702 186.379 825.721 188.46Z" fill="#E0E0E0"/>
<path d="M771.618 213.21L769.99 222.609L761.572 221.19L763.143 212.097C755.706 210.598 748.842 207.063 743.332 201.892L749.702 192.493C753.96 196.657 759.241 199.647 765.023 201.169L767.408 187.265C758.457 183.427 748.551 178.589 750.571 166.659C752.087 157.816 759.86 151.337 773.414 152.088L775.013 142.827L783.431 144.246L781.86 153.339C787.821 154.686 793.372 157.422 798.052 161.32L792.074 170.858C788.552 167.865 784.458 165.605 780.036 164.212L777.567 178.45C786.546 182.204 796.256 187.014 794.235 198.777C792.776 207.453 785.087 213.877 771.618 213.21ZM769.541 174.946L771.59 163.1C766.959 163.35 764.771 165.463 764.294 168.216C763.816 170.969 766.061 173.166 769.541 174.946ZM780.569 197.581C781.046 194.801 778.886 192.659 775.49 190.796L773.498 202.281C777.875 202.003 780.092 200.168 780.569 197.581Z" fill="#E0E0E0"/>
<path d="M1277.69 1252.76C1277.69 1254.56 915.723 1255.89 674.682 1255.89C433.64 1255.89 136.381 1254.56 136.381 1252.76C136.381 1250.95 433.444 1249.63 674.682 1249.63C915.919 1249.63 1277.69 1251.07 1277.69 1252.76Z" fill="white"/>
<path d="M344.802 1153.06C392.956 1119.69 403.9 1057.82 401.992 1002.18C401.683 992.89 402.693 983.102 398.259 974.926C393.826 966.751 383.387 961.217 374.996 965.138C368.037 968.391 365.006 976.4 361.106 983.046C355.892 991.892 348.267 999.101 339.106 1003.85C333.157 1006.91 325.776 1008.8 319.883 1005.57C311.802 1001.15 310.848 990.082 310.904 980.849C311.016 963.627 311.119 946.405 311.212 929.182C311.212 919.95 311.212 910.523 308.406 901.764C305.6 893.004 299.09 884.828 290.222 882.298C281.355 879.767 270.383 884.912 268.531 893.949C268.17 897.767 268.076 901.604 268.25 905.434C267.998 909.272 266.202 913.526 262.638 914.583C259.074 915.64 255.173 913.054 252.395 910.356C242.77 901.013 236.232 889 230.143 876.987C224.053 864.974 218.104 852.794 209.377 842.616C200.65 832.438 188.583 824.374 175.226 823.623C161.869 822.872 147.642 831.048 144.358 844.034C141.075 857.02 148.652 870.285 156.986 880.824C169.367 896.462 183.96 910.249 200.313 921.757C203.502 923.484 206.042 926.186 207.553 929.46C209.573 935.634 203.709 941.751 197.563 943.781C190.604 946.062 183.083 945.339 175.815 946.201C168.547 947.063 160.662 950.233 157.912 957.018C154.096 966.473 162.065 976.484 169.894 982.852C185.601 995.836 203.447 1006.04 222.65 1013.02C229.525 1015.53 236.681 1017.7 242.293 1022.48C247.906 1027.26 251.161 1035.55 247.906 1041.94C244.65 1048.34 235.979 1050.54 228.796 1049.23C221.612 1047.92 215.186 1044.03 208.339 1041.47C195.543 1036.69 178.986 1037.55 170.792 1048.53C165.376 1055.74 164.927 1065.8 167.649 1074.4C170.746 1082.86 175.516 1090.62 181.68 1097.23C201.997 1121.39 228.41 1139.78 258.232 1150.53C287.949 1160.74 315.478 1163.49 345.027 1152.79" fill="#E0E0E0"/>
<path d="M157.631 831.604C157.893 831.936 158.194 832.235 158.529 832.493L161.335 834.941C163.777 837.082 167.369 840.224 171.887 844.423C184.707 856.216 196.611 868.951 207.497 882.52C214.456 891.085 221.528 900.762 229.188 911.301C236.849 921.84 244.706 933.214 252.648 945.449C261.023 958.191 268.695 971.372 275.63 984.937C279.222 992 282.449 999.369 285.704 1006.91L295.61 1029.82C308.351 1058.84 319.434 1088.55 328.807 1118.8C336.375 1143.53 341.58 1168.91 344.353 1194.61C346.177 1211.94 346.468 1229.4 345.223 1246.78C344.746 1252.95 344.269 1257.71 343.82 1260.93C343.652 1262.49 343.511 1263.71 343.399 1264.6C343.361 1265.03 343.361 1265.46 343.399 1265.88C343.519 1265.47 343.603 1265.05 343.652 1264.63C343.652 1263.74 344.016 1262.52 344.269 1260.99C344.802 1257.76 345.391 1253.01 345.981 1246.83C347.482 1229.41 347.37 1211.9 345.644 1194.5C343.047 1168.69 337.945 1143.19 330.406 1118.36C321.062 1087.98 309.959 1058.16 297.154 1029.04L287.248 1006.13C283.965 998.591 280.737 991.138 277.118 984.047C270.129 970.455 262.391 957.254 253.939 944.504C245.941 932.241 237.916 920.923 230.339 910.384C222.762 899.844 215.438 890.195 208.423 881.658C197.413 868.124 185.337 855.478 172.308 843.839C167.705 839.723 164.057 836.637 161.532 834.607L158.726 832.271L157.631 831.604Z" fill="#407BFF"/>
<path d="M276.612 984.019C277.069 982.742 277.38 981.417 277.538 980.071C278.015 977.512 278.605 973.814 279.25 969.198C280.569 960.021 282.056 947.257 283.431 933.047C284.806 918.837 286.462 906.268 287.921 897.119C288.623 892.531 289.24 888.777 289.717 886.274C290.04 884.963 290.209 883.619 290.222 882.27C289.708 883.517 289.323 884.812 289.072 886.135C288.398 888.666 287.584 892.336 286.743 896.897C284.947 906.046 283.207 918.782 281.72 932.88C280.232 946.979 278.913 959.326 278.044 969.031C277.595 973.369 277.202 977.012 276.865 979.959C276.629 981.299 276.544 982.661 276.612 984.019Z" fill="#2F4BDE"/>
<path d="M156.762 961.828C158.333 962.152 159.929 962.338 161.533 962.385C164.619 962.663 169.081 963.024 174.553 963.664C185.525 964.832 200.65 966.973 217.207 970.06C233.763 973.146 248.636 976.65 259.299 979.459C264.659 980.821 268.952 982.045 271.955 982.879C273.47 983.396 275.029 983.778 276.613 984.019C275.191 983.277 273.696 982.68 272.151 982.24C269.345 981.211 264.968 979.82 259.636 978.291C249.001 975.176 234.128 971.506 217.544 968.391C203.374 965.675 189.071 963.689 174.694 962.44C169.081 961.967 164.704 961.773 161.617 961.717C159.999 961.579 158.371 961.616 156.762 961.828Z" fill="#2F4BDE"/>
<path d="M328.835 1116C329.178 1115.56 329.452 1115.07 329.649 1114.55L331.698 1110.27C333.466 1106.51 335.879 1101.04 338.769 1094.25C344.55 1080.62 351.93 1061.58 359.815 1040.47C367.701 1019.36 374.884 1000.23 380.356 986.55L386.923 970.31C387.624 968.558 388.186 967.084 388.663 965.889C388.91 965.388 389.081 964.854 389.168 964.303C388.825 964.743 388.551 965.23 388.354 965.749L386.306 970.06C384.538 973.786 382.124 979.264 379.234 986.077C373.453 999.675 366.073 1018.72 358.188 1039.86C350.303 1060.99 343.119 1080.07 337.647 1093.78L331.08 1109.99L329.341 1114.41C329.095 1114.91 328.925 1115.45 328.835 1116Z" fill="#2F4BDE"/>
<path d="M169.558 1065.19C170.049 1065.48 170.578 1065.69 171.129 1065.83L175.759 1067.36L192.821 1072.92C207.216 1077.57 227.028 1084.04 248.944 1091.53C270.86 1099.01 290.727 1105.43 305.235 1109.66C312.503 1111.83 318.368 1113.52 322.465 1114.61L327.179 1115.83C327.725 1116 328.291 1116.1 328.863 1116.14C328.36 1115.86 327.822 1115.64 327.264 1115.5L322.662 1113.97L305.6 1108.4C291.205 1103.76 271.393 1097.28 249.477 1089.8C227.561 1082.32 207.693 1075.9 193.354 1071.7C186.086 1069.53 180.221 1067.83 176.124 1066.72L171.41 1065.5C170.81 1065.31 170.186 1065.21 169.558 1065.19Z" fill="#2F4BDE"/>
<path d="M802.373 1127.87L490.89 1126.45C481.983 1126.41 473.171 1124.63 464.958 1121.22C456.744 1117.8 449.29 1112.82 443.021 1106.55C436.751 1100.28 431.789 1092.85 428.418 1084.68C425.047 1076.51 423.333 1067.76 423.374 1058.93L426.797 285.149C426.886 267.318 434.116 250.252 446.897 237.701C459.678 225.15 476.965 218.141 494.959 218.215L806.442 219.633C824.433 219.714 841.655 226.872 854.321 239.533C866.988 252.195 874.061 269.323 873.986 287.151L870.675 1060.94C870.638 1069.78 868.841 1078.53 865.386 1086.68C861.932 1094.83 856.887 1102.23 850.542 1108.45C844.197 1114.67 836.676 1119.58 828.41 1122.92C820.145 1126.25 811.297 1127.93 802.373 1127.87Z" fill="#263238"/>
<path d="M805.854 246.357L745.494 246.078C743.526 246.111 741.584 246.527 739.778 247.304C737.973 248.081 736.339 249.202 734.971 250.604C733.603 252.006 732.527 253.662 731.805 255.476C731.083 257.29 730.728 259.228 730.762 261.178V272.051C730.829 275.992 729.316 279.799 726.554 282.635C723.791 285.471 720.006 287.106 716.029 287.179L598.339 286.623C594.362 286.521 590.588 284.858 587.847 282.001C585.106 279.144 583.621 275.325 583.719 271.384V260.511C583.817 256.574 582.336 252.76 579.601 249.903C576.866 247.047 573.099 245.381 569.127 245.272H547.884L495.044 244.855C488.805 244.829 482.623 246.022 476.849 248.364C471.075 250.706 465.823 254.153 461.393 258.506C456.964 262.86 453.442 268.035 451.031 273.738C448.62 279.44 447.365 285.557 447.34 291.739L444.113 1047C444.068 1059.48 449.022 1071.47 457.887 1080.33C466.752 1089.2 478.804 1094.21 491.396 1094.28L802.234 1095.7C814.832 1095.74 826.933 1090.83 835.877 1082.04C844.822 1073.25 849.88 1061.3 849.939 1048.81L853.166 293.547C853.196 281.075 848.231 269.101 839.361 260.254C830.49 251.406 818.44 246.408 805.854 246.357Z" fill="#E0E0E0"/>
<path d="M735.251 619.873H535.06V810.97H735.251V619.873Z" fill="#407BFF"/>
<path d="M590.256 566.621L535.031 619.873H735.222L773.498 566.621H590.256Z" fill="#407BFF"/>
<path opacity="0.1" d="M590.256 566.621L535.031 619.873H735.222L773.498 566.621H590.256Z" fill="black"/>
<path d="M735.222 810.942L773.498 756.995V566.621L735.222 619.873V810.942Z" fill="#407BFF"/>
<path opacity="0.3" d="M735.222 810.942L773.498 756.995V566.621L735.222 619.873V810.942Z" fill="black"/>
<path d="M682.86 699.21H578.359V710.945H682.86V699.21Z" fill="#407BFF"/>
<path opacity="0.2" d="M682.86 699.21H578.359V710.945H682.86V699.21Z" fill="black"/>
<path d="M663.974 719.732H597.272V730.8H663.974V719.732Z" fill="#407BFF"/>
<path opacity="0.2" d="M663.974 719.732H597.272V730.8H663.974V719.732Z" fill="black"/>
<path d="M575.86 559.085C575.594 556.673 575.191 554.278 574.653 551.911C572.915 545.494 569.051 539.843 563.681 535.866C560.032 533.126 555.783 531.278 551.278 530.471C546.114 529.555 540.797 530.016 535.872 531.806C533.207 532.736 530.706 534.078 528.464 535.782C526.081 537.494 523.996 539.579 522.29 541.955C518.592 546.92 516.596 552.928 516.596 559.099C516.596 565.27 518.592 571.278 522.29 576.243C524.004 578.613 526.088 580.697 528.464 582.416C530.72 584.099 533.217 585.44 535.872 586.393C540.487 588.069 545.453 588.573 550.315 587.859C555.178 587.145 559.783 585.235 563.709 582.305C569.057 578.324 572.909 572.686 574.653 566.287C575.195 563.912 575.598 561.507 575.86 559.085C576.051 561.551 575.833 564.031 575.214 566.427C573.646 573.063 569.809 578.958 564.355 583.111C560.307 586.231 555.528 588.282 550.464 589.075C545.4 589.868 540.215 589.375 535.395 587.644C529.671 585.61 524.688 581.931 521.084 577.077C517.157 571.854 515.036 565.515 515.036 559.002C515.036 552.489 517.157 546.15 521.084 540.927C524.7 536.085 529.679 532.409 535.395 530.36C540.559 528.542 546.119 528.12 551.502 529.136C557.219 530.23 562.496 532.934 566.702 536.924C570.908 540.914 573.863 546.021 575.214 551.633C575.849 554.064 576.067 556.583 575.86 559.085Z" fill="#263238"/>
<path d="M532.421 554.97C532.421 550.799 534.779 548.018 538.258 548.018C541.738 548.018 544.095 550.799 544.095 554.97C544.095 559.141 541.682 561.922 538.258 561.922C534.835 561.922 532.421 559.085 532.421 554.97ZM542.243 554.97C542.243 551.633 540.643 549.658 538.258 549.658C535.873 549.658 534.273 551.661 534.273 554.97C534.273 558.279 535.817 560.253 538.258 560.253C540.7 560.253 542.243 558.279 542.243 554.97ZM553.888 548.185H556.077L538.427 573.796H536.238L553.888 548.185ZM548.276 567.038C548.276 562.867 550.689 560.086 554.113 560.086C557.536 560.086 559.95 562.867 559.95 567.038C559.95 571.21 557.593 573.99 554.113 573.99C550.633 573.99 548.248 571.21 548.248 567.038H548.276ZM558.098 567.038C558.098 563.729 556.554 561.727 554.113 561.727C551.672 561.727 550.128 563.701 550.128 567.038C550.128 570.375 551.728 572.322 554.113 572.322C556.498 572.322 558.07 570.209 558.07 567.038H558.098Z" fill="#263238"/>
<path d="M703.793 875.596C703.793 881.158 699.724 885.885 690.744 885.885C686.516 885.958 682.359 884.797 678.79 882.548L681.596 876.987C684.199 878.826 687.323 879.8 690.52 879.767C694.14 879.767 696.385 878.266 696.385 875.735C696.385 873.205 694.785 871.675 689.089 871.675H681.063L682.691 854.212H701.8V859.968H688.724L688.247 865.863H690.8C700.117 865.947 703.793 870.09 703.793 875.596Z" fill="#263238"/>
<path d="M706.739 869.812C706.739 859.55 712.492 853.739 720.181 853.739C727.87 853.739 733.622 859.55 733.622 869.812C733.622 880.073 728.01 885.885 720.181 885.885C712.352 885.885 706.739 880.073 706.739 869.812ZM726.382 869.812C726.382 862.748 723.885 859.828 720.237 859.828C716.589 859.828 714.148 862.748 714.148 869.812C714.148 876.875 716.673 879.795 720.237 879.795C723.801 879.795 726.326 876.875 726.326 869.812H726.382Z" fill="#263238"/>
<path d="M752.311 861.08C752.41 861.968 752.313 862.866 752.026 863.713C751.74 864.56 751.27 865.334 750.65 865.983C750.031 866.631 749.276 867.138 748.438 867.468C747.601 867.798 746.701 867.943 745.801 867.893C744.566 867.926 743.344 867.628 742.265 867.031L743.36 864.89C744.082 865.334 744.924 865.547 745.773 865.502C746.262 865.532 746.752 865.457 747.21 865.281C747.667 865.106 748.08 864.835 748.422 864.486C748.763 864.137 749.024 863.719 749.187 863.261C749.35 862.803 749.41 862.315 749.365 861.831C748.935 862.223 748.431 862.526 747.881 862.721C747.332 862.917 746.749 863.002 746.166 862.971C745.612 863.017 745.055 862.949 744.529 862.772C744.003 862.595 743.519 862.313 743.109 861.942C742.698 861.572 742.369 861.121 742.141 860.619C741.914 860.116 741.794 859.573 741.788 859.022C741.804 858.425 741.945 857.838 742.201 857.297C742.457 856.756 742.823 856.273 743.276 855.879C743.729 855.484 744.26 855.187 744.834 855.006C745.409 854.824 746.015 854.762 746.615 854.824C750.235 854.824 752.311 856.993 752.311 861.08ZM749.028 858.883C749.022 858.61 748.959 858.341 748.841 858.094C748.724 857.846 748.555 857.626 748.345 857.448C748.136 857.269 747.892 857.137 747.627 857.058C747.363 856.98 747.085 856.957 746.811 856.993C746.533 856.945 746.248 856.959 745.976 857.032C745.704 857.105 745.451 857.236 745.235 857.416C745.019 857.596 744.846 857.821 744.727 858.074C744.608 858.328 744.546 858.604 744.546 858.883C744.546 859.163 744.608 859.439 744.727 859.693C744.846 859.946 745.019 860.171 745.235 860.351C745.451 860.531 745.704 860.662 745.976 860.735C746.248 860.809 746.533 860.822 746.811 860.774C747.091 860.823 747.378 860.81 747.653 860.738C747.928 860.665 748.183 860.535 748.402 860.355C748.621 860.175 748.798 859.951 748.92 859.697C749.043 859.442 749.108 859.165 749.112 858.883H749.028Z" fill="#263238"/>
<path d="M764.014 861.08C764.113 861.968 764.016 862.866 763.729 863.713C763.442 864.56 762.973 865.334 762.353 865.983C761.733 866.631 760.978 867.138 760.141 867.468C759.303 867.798 758.403 867.943 757.503 867.893C756.268 867.926 755.047 867.628 753.968 867.031L755.118 864.973C755.831 865.415 756.664 865.629 757.503 865.585C757.994 865.62 758.486 865.548 758.946 865.375C759.405 865.201 759.821 864.93 760.163 864.58C760.505 864.23 760.766 863.81 760.927 863.35C761.088 862.889 761.146 862.399 761.095 861.914C760.673 862.308 760.174 862.612 759.628 862.808C759.083 863.004 758.503 863.088 757.924 863.055C757.369 863.1 756.811 863.033 756.283 862.856C755.756 862.679 755.271 862.397 754.858 862.027C754.445 861.657 754.113 861.206 753.882 860.704C753.652 860.202 753.528 859.658 753.519 859.106C753.534 858.506 753.676 857.916 753.933 857.373C754.191 856.83 754.56 856.345 755.016 855.951C755.472 855.556 756.006 855.26 756.584 855.08C757.162 854.9 757.771 854.841 758.373 854.907C761.853 854.824 764.014 856.993 764.014 861.08ZM760.702 858.883C760.697 858.61 760.633 858.341 760.516 858.093C760.398 857.846 760.229 857.626 760.02 857.448C759.811 857.269 759.566 857.136 759.302 857.058C759.037 856.98 758.759 856.957 758.486 856.993C757.979 856.993 757.494 857.192 757.136 857.546C756.778 857.901 756.577 858.382 756.577 858.883C756.577 859.385 756.778 859.866 757.136 860.221C757.494 860.575 757.979 860.774 758.486 860.774C758.761 860.814 759.042 860.795 759.31 860.718C759.578 860.642 759.826 860.51 760.039 860.331C760.251 860.152 760.423 859.931 760.542 859.681C760.661 859.431 760.725 859.16 760.73 858.883H760.702Z" fill="#263238"/>
<path d="M763.902 872.232H741.509V875.04H763.902V872.232Z" fill="#263238"/>
<path d="M636.558 863.388H520.945V866.948H636.558V863.388Z" fill="#263238"/>
<path d="M591.127 874.734H520.945V878.294H591.127V874.734Z" fill="#263238"/>
<path d="M769.682 1021.48L538.539 1020.42C536.154 1020.42 534.217 1017.81 534.245 1014.64L534.498 954.71C534.498 951.54 536.462 948.982 538.848 948.982L769.991 950.066C772.376 950.066 774.312 952.652 774.312 955.822L774.059 1015.75C774.031 1018.92 772.095 1021.48 769.682 1021.48Z" fill="#407BFF"/>
<path d="M644.696 987.912C644.696 990.971 642.507 992.695 638.186 992.668H630.216V974.732H637.709C641.553 974.732 643.77 976.456 643.77 979.376C643.801 980.261 643.546 981.132 643.041 981.863C642.536 982.594 641.808 983.145 640.964 983.435C642.045 983.568 643.035 984.106 643.729 984.938C644.423 985.771 644.769 986.835 644.696 987.912ZM642.872 987.746C642.872 985.41 641.244 984.381 638.186 984.381H632.068V991.11H638.186C641.216 991.138 642.872 990.109 642.872 987.746ZM632.096 976.205V982.712H637.709C640.515 982.712 642.086 981.628 642.114 979.487C642.142 977.345 640.515 976.233 637.737 976.205H632.096Z" fill="white"/>
<path d="M648.765 985.048V974.787H650.589V984.993C650.589 989.247 652.498 991.194 655.865 991.222C659.232 991.25 661.197 989.303 661.197 985.048V974.843H662.965V985.132C662.965 990.276 660.158 992.918 655.837 992.918C651.515 992.918 648.737 990.11 648.765 985.048Z" fill="white"/>
<path d="M674.189 986.634V992.89H672.393V986.689L665.518 974.927H667.454L673.375 985.021L679.352 974.982H681.176L674.189 986.634Z" fill="white"/>
<path d="M578.498 414.067H491.114V458.281H578.498V414.067Z" fill="#407BFF"/>
<path d="M509.972 398.578L491.114 414.067H578.498L591.378 398.578H509.972Z" fill="#407BFF"/>
<path opacity="0.2" d="M509.972 398.578L491.114 414.067H578.498L591.378 398.578H509.972Z" fill="black"/>
<path d="M578.499 458.281L591.379 441.43V398.578L578.499 414.067V458.281Z" fill="#407BFF"/>
<path opacity="0.1" d="M578.499 458.281L591.379 441.43V398.578L578.499 414.067V458.281Z" fill="black"/>
<path d="M563.626 428.443H504.051V433.004H563.626V428.443Z" fill="#407BFF"/>
<path opacity="0.1" d="M563.626 428.443H504.051V433.004H563.626V428.443Z" fill="black"/>
<path d="M552.823 436.675H515.837V441.235H552.823V436.675Z" fill="#407BFF"/>
<path opacity="0.1" d="M552.823 436.675H515.837V441.235H552.823V436.675Z" fill="black"/>
<path d="M555.657 482.113H515.837V488.147H555.657V482.113Z" fill="#263238"/>
<path d="M491.114 414.067C492.517 413.859 493.934 413.766 495.352 413.789L506.885 413.538C516.622 413.538 530.092 413.344 544.936 413.344L578.61 413.511L578.161 413.705L587.758 402.582C588.891 401.158 590.14 399.828 591.491 398.605C590.537 400.154 589.458 401.624 588.264 402.999L578.947 414.484L578.779 414.679H578.498L544.824 414.845C529.98 414.845 516.51 414.845 506.773 414.623L495.239 414.4C493.856 414.427 492.474 414.315 491.114 414.067Z" fill="#407BFF"/>
<g opacity="0.2">
<path opacity="0.2" d="M491.114 414.067C492.517 413.859 493.934 413.766 495.352 413.789L506.885 413.538C516.622 413.538 530.092 413.344 544.936 413.344L578.61 413.511L578.161 413.705L587.758 402.582C588.891 401.158 590.14 399.828 591.491 398.605C590.537 400.154 589.458 401.624 588.264 402.999L578.947 414.484L578.779 414.679H578.498L544.824 414.845C529.98 414.845 516.51 414.845 506.773 414.623L495.239 414.4C493.856 414.427 492.474 414.315 491.114 414.067Z" fill="black"/>
</g>
<path d="M578.498 458.281C577.759 450.937 577.516 443.551 577.769 436.174C577.509 428.751 577.753 421.319 578.498 413.928C579.262 421.317 579.515 428.75 579.256 436.174C579.509 443.552 579.256 450.938 578.498 458.281Z" fill="#407BFF"/>
<g opacity="0.2">
<path opacity="0.2" d="M578.498 458.281C577.759 450.937 577.516 443.551 577.769 436.174C577.509 428.751 577.753 421.319 578.498 413.928C579.262 421.317 579.515 428.75 579.256 436.174C579.509 443.552 579.256 450.938 578.498 458.281Z" fill="black"/>
</g>
<path d="M680.305 482.113H640.486V488.147H680.305V482.113Z" fill="#263238"/>
<path d="M627.843 389.546L627.265 458.007L689.924 458.527L690.503 390.066L627.843 389.546Z" fill="#407BFF"/>
<path d="M646.099 375.747L627.607 389.818H690.268L703.149 375.747H646.099Z" fill="#407BFF"/>
<path d="M690.268 458.281L703.148 441.43V375.747L690.268 389.818V458.281Z" fill="#407BFF"/>
<path d="M672.869 417.487H641.188V422.047H672.869V417.487Z" fill="#407BFF"/>
<path opacity="0.2" d="M672.869 417.487H641.188V422.047H672.869V417.487Z" fill="black"/>
<path d="M667.145 425.746H647.474V430.307H667.145V425.746Z" fill="#407BFF"/>
<path opacity="0.2" d="M667.145 425.746H647.474V430.307H667.145V425.746Z" fill="black"/>
<path d="M627.607 389.818C628.669 389.61 629.751 389.517 630.834 389.54L639.589 389.29C646.997 389.151 657.212 389.067 668.521 389.067H690.268L689.791 389.262C693.72 385.063 697.003 381.615 699.332 379.223C700.48 377.895 701.758 376.684 703.149 375.608C702.189 377.073 701.1 378.45 699.893 379.724C697.705 382.254 694.562 385.814 690.745 390.096L690.549 390.319H690.268H668.521C657.296 390.319 646.997 390.319 639.589 390.096L630.834 389.874C629.76 389.981 628.677 389.962 627.607 389.818Z" fill="#407BFF"/>
<g opacity="0.3">
<path opacity="0.3" d="M627.607 389.818C628.669 389.61 629.751 389.517 630.834 389.54L639.589 389.29C646.997 389.151 657.212 389.067 668.521 389.067H690.268L689.791 389.262C693.72 385.063 697.003 381.615 699.332 379.223C700.48 377.895 701.758 376.684 703.149 375.608C702.189 377.073 701.1 378.45 699.893 379.724C697.705 382.254 694.562 385.814 690.745 390.096L690.549 390.319H690.268H668.521C657.296 390.319 646.997 390.319 639.589 390.096L630.834 389.874C629.76 389.981 628.677 389.962 627.607 389.818Z" fill="black"/>
</g>
<path d="M690.267 458.281C689.847 458.281 689.51 442.959 689.51 424.05C689.51 405.14 689.847 389.818 690.267 389.818C690.688 389.818 691.025 405.14 691.025 424.05C691.025 442.959 690.576 458.281 690.267 458.281Z" fill="#407BFF"/>
<g opacity="0.3">
<path opacity="0.3" d="M690.267 458.281C689.847 458.281 689.51 442.959 689.51 424.05C689.51 405.14 689.847 389.818 690.267 389.818C690.688 389.818 691.025 405.14 691.025 424.05C691.025 442.959 690.576 458.281 690.267 458.281Z" fill="black"/>
</g>
<path d="M791.262 482.113H751.443V488.147H791.262V482.113Z" fill="#263238"/>
<path d="M742.911 415.207C746.164 414.754 749.45 414.577 752.733 414.678C758.822 414.678 767.213 414.456 776.501 414.456C784.723 414.456 792.272 414.456 797.996 414.623L797.575 414.817C800.129 412.037 802.205 409.979 803.693 408.505C804.397 407.679 805.208 406.95 806.106 406.336C805.579 407.279 804.928 408.149 804.17 408.922C802.851 410.535 800.887 412.815 798.557 415.568L798.389 415.763H798.108C792.496 415.763 784.835 415.93 776.613 415.93C767.325 415.93 758.934 415.93 752.845 415.707C749.526 415.795 746.204 415.628 742.911 415.207Z" fill="#407BFF"/>
<path d="M798.024 415.207H742.911V458.309H798.024V415.207Z" fill="#407BFF"/>
<path opacity="0.2" d="M798.024 415.207H742.911V458.309H798.024V415.207Z" fill="black"/>
<path d="M754.557 406.336L742.911 415.179H798.024L806.106 406.336H754.557Z" fill="#407BFF"/>
<path d="M798.024 458.281L806.106 447.686V406.336L798.024 415.179V458.281Z" fill="#407BFF"/>
<path opacity="0.1" d="M798.024 458.281L806.106 447.686V406.336L798.024 415.179V458.281Z" fill="black"/>
<path d="M783.741 431.641H758.514V434.978H783.741V431.641Z" fill="#407BFF"/>
<path d="M779.167 437.703H763.509V441.041H779.167V437.703Z" fill="#407BFF"/>
<path d="M798.025 458.282C797.248 451.125 796.977 443.924 797.211 436.73C796.957 429.547 797.21 422.355 797.969 415.207C798.691 422.358 798.935 429.548 798.698 436.73C798.953 443.921 798.728 451.12 798.025 458.282Z" fill="#407BFF"/>
<path d="M876.681 207.537L870.956 217.881L860.518 223.526L870.956 229.199L876.681 239.516L882.378 229.199L892.817 223.526L882.378 217.881L876.681 207.537Z" fill="white"/>
<path d="M388.494 473.632L382.769 483.976L372.33 489.621L382.769 495.266L388.494 505.611L394.19 495.266L404.629 489.621L394.19 483.976L388.494 473.632Z" fill="white"/>
<path d="M918.268 251.418L914.76 257.758L908.362 261.234L914.76 264.71L918.268 271.078L921.804 264.71L928.202 261.234L921.804 257.758L918.268 251.418Z" fill="white"/>
<path d="M357.177 414.178L353.67 420.518L347.271 423.994L353.67 427.47L357.177 433.838L360.685 427.47L367.083 423.994L360.685 420.518L357.177 414.178Z" fill="white"/>
<path d="M1149.92 1137.49L1129.26 1121.39L1159.43 1082.88L1189.88 1106.1L1188.16 1108.6C1180.45 1119.72 1148.09 1164.44 1140.46 1169.78C1131.7 1176.03 1149.92 1137.49 1149.92 1137.49Z" fill="#407BFF"/>
<path d="M1137.74 1169.42C1137.37 1169.14 1148.46 1154.57 1162.49 1136.88C1176.52 1119.19 1188.19 1105.1 1188.56 1105.37C1188.92 1105.65 1177.84 1120.22 1163.81 1137.91C1149.78 1155.6 1138.1 1169.69 1137.74 1169.42Z" fill="#263238"/>
<path d="M1153.59 1141.55C1153.59 1142 1152.16 1142.16 1150.59 1142.16C1149.02 1142.16 1147.64 1141.94 1147.59 1141.5C1147.53 1141.05 1148.85 1140.47 1150.59 1140.5C1152.33 1140.52 1153.59 1141.11 1153.59 1141.55Z" fill="#263238"/>
<path d="M1153 1145.06C1152.86 1145.5 1151.37 1145.47 1149.63 1145.22C1147.89 1144.97 1146.44 1144.64 1146.44 1144.19C1146.44 1143.75 1147.98 1143.33 1149.86 1143.58C1151.74 1143.83 1153.14 1144.61 1153 1145.06Z" fill="#263238"/>
<path d="M1179.24 1116.8C1179.02 1116.8 1178.54 1116 1177.98 1114.49C1177.22 1112.49 1176.85 1110.35 1176.88 1108.21C1176.92 1105.97 1177.73 1103.81 1179.18 1102.09C1180.34 1100.81 1181.4 1100.51 1181.51 1100.7C1181.63 1100.9 1180.9 1101.54 1180.14 1102.79C1179.15 1104.48 1178.61 1106.39 1178.57 1108.35C1178.56 1110.34 1178.75 1112.32 1179.13 1114.27C1179.38 1115.75 1179.47 1116.75 1179.24 1116.8Z" fill="#263238"/>
<path d="M1149.61 1138.63C1149.44 1138.22 1150.28 1137.46 1151.37 1136.77C1152.47 1136.07 1153.54 1135.63 1153.84 1135.96C1154.15 1136.3 1153.54 1137.38 1152.3 1138.19C1151.07 1138.99 1149.77 1139.08 1149.61 1138.63Z" fill="#263238"/>
<path d="M1147.98 1136.49C1147.64 1136.16 1148.18 1134.91 1149.16 1133.71C1150.14 1132.51 1151.29 1131.68 1151.68 1131.96C1152.08 1132.24 1151.52 1133.46 1150.48 1134.74C1149.44 1136.02 1148.43 1136.8 1147.98 1136.49Z" fill="#263238"/>
<path d="M1013.09 806.577C1013.09 806.577 951.352 968.809 959.771 999.119C968.189 1029.43 1134.26 1149.78 1134.26 1149.78L1179.35 1085.44C1179.35 1085.44 1049.76 983.797 1049.34 978.208C1048.92 972.618 1100.81 837.805 1100.81 837.805L1013.09 806.577Z" fill="#263238"/>
<path d="M1131.39 1100.31L1130.81 1100.01C1130.38 1099.7 1129.85 1099.37 1129.18 1098.95L1123 1094.75C1117.7 1091.05 1110.01 1085.66 1100.56 1078.82C1081.87 1065.14 1056.47 1045.61 1029.53 1022.76C1022.8 1017.03 1016.26 1011.38 1009.89 1005.9L1000.71 997.756C997.579 995.262 994.902 992.252 992.799 988.858C991.067 985.361 990.659 981.365 991.648 977.596C992.35 974.008 993.276 970.644 994.146 967.335C995.914 960.8 997.682 954.738 999.281 949.204L1006.97 923.036C1007.81 920.033 1008.49 917.642 1008.99 915.89L1009.5 914.027C1009.42 914.006 1009.35 913.958 1009.3 913.891C1009.25 913.824 1009.24 913.742 1009.25 913.662C1009.26 913.581 1009.3 913.507 1009.36 913.453C1009.42 913.4 1009.5 913.37 1009.58 913.37C1009.66 913.37 1009.74 913.4 1009.8 913.453C1009.86 913.507 1009.9 913.581 1009.91 913.662C1009.92 913.742 1009.9 913.824 1009.86 913.891C1009.81 913.958 1009.74 914.006 1009.66 914.027C1009.66 914.527 1009.44 915.167 1009.27 915.918C1008.91 917.558 1008.34 920.005 1007.53 923.12C1005.93 929.377 1003.43 938.359 1000.32 949.454C998.776 955.016 997.064 961.05 995.352 967.613C994.51 970.866 993.613 974.287 992.939 977.763C992.042 981.248 992.43 984.936 994.034 988.163C996.07 991.402 998.651 994.27 1001.67 996.644L1010.87 1004.74C1017.13 1010.3 1023.67 1015.86 1030.51 1021.56C1057.42 1044.39 1082.68 1064.02 1101.2 1077.9L1123.26 1094.22L1129.26 1098.64L1130.81 1099.81C1131.14 1100.15 1131.42 1100.31 1131.39 1100.31Z" fill="#455A64"/>
<path d="M1116.35 1119.92C1116.02 1119.67 1124.58 1107.96 1135.46 1093.78C1146.35 1079.6 1155.47 1068.28 1155.81 1068.53C1156.15 1068.78 1147.56 1080.49 1136.67 1094.7C1125.78 1108.91 1116.69 1120.17 1116.35 1119.92Z" fill="#455A64"/>
<path d="M1121.91 498.075C1127.52 508.975 1130.33 518.43 1141.22 524.047C1146.13 526.606 1152.13 528.052 1155.25 532.668C1158.48 537.729 1156.96 545.042 1161.03 549.353C1166.98 555.776 1179.1 550.576 1185.75 556.221C1191.7 561.282 1189.79 572.127 1196.22 576.577C1199.81 579.107 1204.64 578.551 1208.85 580.108C1215.58 582.694 1218.78 590.397 1219.65 597.488C1220.57 603.18 1219.84 609.015 1217.55 614.312C1216.37 616.939 1214.54 619.23 1212.24 620.975C1209.93 622.719 1207.22 623.861 1204.36 624.295C1196.7 625.102 1188.05 619.874 1181.91 624.295C1179.91 626.133 1178.18 628.228 1176.74 630.524C1174.81 632.957 1172.32 634.888 1169.46 636.152C1166.61 637.417 1163.5 637.976 1160.38 637.781C1157.26 637.587 1154.24 636.646 1151.57 635.037C1148.9 633.429 1146.67 631.203 1145.06 628.55C1140.8 621.486 1141.08 611.865 1134.82 606.303C1131.27 603.84 1127.29 602.031 1123.09 600.964C1119.02 599.463 1114.81 596.96 1113.6 592.844C1112.21 589.2 1110.22 585.808 1107.71 582.806C1104.6 578.189 1100.44 583.834 1096.29 581.554C1092.14 579.274 1093.74 574.825 1093.48 570.153" fill="#263238"/>
<path d="M1049.32 655.69L995.999 638.032C995.999 638.032 972.455 705.216 965.131 705.884C925.171 709.499 882.405 696.346 867.42 691.173C865.877 689.477 864.137 687.447 862.201 684.944C860.551 682.799 859.28 680.392 858.441 677.826C857.283 674.674 856.565 671.381 856.308 668.037C856.367 667.396 856.223 666.752 855.897 666.195C855.571 665.637 855.078 665.194 854.487 664.925C853.897 664.657 853.236 664.577 852.597 664.696C851.958 664.815 851.373 665.127 850.92 665.59C849.209 667.815 848.76 676.296 852.688 685.445C856.617 694.594 842.67 687.308 837.535 684.75C832.4 682.191 816.152 675.017 814.103 675.962C811.101 677.353 812.055 680.773 817.246 683.22C822.438 685.667 837.479 694.038 835.963 696.652C834.448 699.266 808.547 685.862 808.547 685.862C808.547 685.862 803.44 682.136 801.616 685.111C798.333 690.478 826.872 702.658 829.678 703.743C831.614 704.521 830.099 707.413 828.078 706.523C826.058 705.634 802.823 692.564 799.343 698.125C796.705 702.297 822.803 708.387 826.17 713.753C829.537 719.12 806.864 707.163 804.534 711.251C803.665 712.752 803.216 714.032 817.246 719.037C827.528 722.217 837.972 724.853 848.535 726.934V727.074C848.535 727.074 988.674 789.197 1018.92 729.326C1050.94 665.646 1049.32 655.69 1049.32 655.69Z" fill="#E5BAAB"/>
<path d="M1101.99 600.047L1125.25 600.464L1143.71 652.937L1128.67 713.058C1124.27 730.605 1144.25 765.754 1143.71 785.137L1013.28 806.076L1010.48 719.732V716.951L965.327 694.705L980.227 658.555C1003.15 605.33 1043.2 602.104 1043.2 602.104L1101.99 600.047Z" fill="#407BFF"/>
<g opacity="0.2">
<path opacity="0.2" d="M1101.99 600.047L1125.25 600.464L1143.71 652.937L1128.67 713.058C1124.27 730.605 1144.25 765.754 1143.71 785.137L1013.28 806.076L1010.48 719.732V716.951L965.327 694.705L980.227 658.555C1003.15 605.33 1043.2 602.104 1043.2 602.104L1101.99 600.047Z" fill="white"/>
</g>
<path d="M1126.2 600.603C1126.2 600.603 1125.95 600.603 1125.45 600.909C1124.7 601.163 1123.94 601.376 1123.17 601.548C1120.19 602.09 1117.17 602.388 1114.14 602.438L1114.42 601.91L1123.31 616.231L1123.93 617.176L1122.78 616.982C1117.63 616.102 1112.38 615.934 1107.18 616.481L1107.71 615.814C1107.91 621.69 1108.76 627.528 1110.24 633.222L1110.63 634.389L1109.4 634.111C1103.47 632.861 1097.75 630.782 1092.42 627.938L1093.51 627.465C1092.45 632.638 1091.35 638.06 1090.23 643.594L1089.98 644.79L1089.02 644.039C1086.67 642.184 1084.43 640.187 1082.32 638.06C1080.23 635.993 1078.27 633.802 1076.45 631.497L1077.52 631.636L1062.59 643.288L1061.66 644.011L1061.41 642.871C1060.34 637.726 1059.33 632.721 1058.35 627.938L1059.25 628.439L1043.28 634L1042.19 634.389L1042.5 633.277C1044.18 626.965 1045.72 621.236 1047.13 616.147L1047.52 616.759L1033.66 614.395H1033.1L1033.41 613.923L1039.47 605.135L1041.09 602.883C1041.46 602.382 1041.68 602.132 1041.71 602.16C1041.58 602.448 1041.43 602.727 1041.26 602.994L1039.8 605.33L1034.05 614.312L1033.8 613.756L1047.69 615.842H1048.25V616.398L1043.82 633.583L1043.03 632.832L1058.91 627.271L1059.67 626.993L1059.84 627.771L1062.98 642.704L1061.8 642.287L1076.7 630.58L1077.29 630.107L1077.77 630.691C1079.54 632.884 1081.43 634.973 1083.44 636.948C1085.51 639.031 1087.7 640.99 1090.01 642.815L1088.83 643.26C1089.95 637.699 1091.07 632.304 1092.14 627.132L1092.33 626.13L1093.23 626.659C1098.44 629.44 1104.01 631.481 1109.79 632.721L1108.98 633.583C1107.5 627.797 1106.69 621.864 1106.56 615.897V615.285H1107.18C1112.5 614.754 1117.87 614.988 1123.12 615.981L1122.59 616.759C1119.19 611.198 1116.3 606.192 1113.94 602.271L1113.66 601.771H1114.22C1117.23 601.802 1120.25 601.616 1123.23 601.214C1125.14 600.797 1126.2 600.547 1126.2 600.603Z" fill="#455A64"/>
<path d="M1151.96 622.655C1151.96 622.655 1151.07 622.238 1149.16 621.709C1146.47 620.965 1143.63 620.917 1140.91 621.57L1141.13 621.264C1141.67 624.323 1142.51 627.994 1143.66 632.193C1144.81 636.392 1146.21 641.147 1147.47 646.514L1147.67 647.293L1146.86 647.07C1140.21 645.151 1132.38 643.705 1124.16 640.952L1124.91 640.341C1125.78 648.266 1125.73 657.025 1126.2 666.48V667.287H1125.36C1117.87 665.997 1110.5 664.071 1103.33 661.53C1102.44 661.28 1101.4 660.919 1101.15 661.308C1100.58 661.977 1100.16 662.753 1099.91 663.588L1097.58 669.15C1096.04 672.904 1094.44 676.713 1092.84 680.551L1092.36 681.719L1091.58 680.746L1076.65 662.392L1075.53 661.03H1076.54L1052.57 677.381L1051.78 677.909L1051.45 677.019C1048.64 669.289 1046.12 661.836 1043.59 654.606L1044.66 654.968C1036.27 660.366 1027.31 664.833 1017.94 668.288L1016.96 668.677V667.62C1018.67 655.579 1020.22 644.762 1021.53 635.419L1022.24 635.947C1015.41 638.611 1008.09 639.778 1000.77 639.367H1000.29L1000.46 638.922L1005.48 625.519C1006.07 624.101 1006.49 622.961 1006.83 622.099C1006.97 621.702 1007.15 621.32 1007.36 620.958C1007.29 621.367 1007.18 621.767 1007.03 622.154C1006.72 623.044 1006.33 624.184 1005.85 625.658C1004.73 628.828 1003.04 633.361 1001.11 639.173L1000.8 638.7C1007.99 638.987 1015.17 637.745 1021.84 635.057L1022.66 634.723V635.585C1021.39 644.957 1019.85 655.746 1018.34 667.815L1017.47 667.148C1026.72 663.665 1035.56 659.199 1043.84 653.828L1044.6 653.355L1044.91 654.189L1052.82 676.435L1051.7 676.102L1075.69 659.723L1076.28 659.333L1076.7 659.862L1077.83 661.224L1092.73 679.605L1091.46 679.772L1096.23 668.371L1098.56 662.809C1098.9 661.76 1099.49 660.806 1100.28 660.029C1100.56 659.779 1100.91 659.615 1101.29 659.556C1101.6 659.525 1101.92 659.525 1102.24 659.556C1102.76 659.662 1103.28 659.801 1103.78 659.973C1110.88 662.498 1118.17 664.433 1125.59 665.757L1124.8 666.452C1124.38 657.053 1124.46 648.238 1123.68 640.368V639.451L1124.55 639.757C1132.69 642.537 1140.46 644.067 1147.17 646.069L1146.55 646.625C1145.37 641.314 1144 636.559 1142.93 632.304C1141.86 628.049 1141.08 624.379 1140.6 621.181V620.931H1140.85C1143.64 620.308 1146.55 620.443 1149.27 621.32C1150.23 621.643 1151.13 622.092 1151.96 622.655Z" fill="#455A64"/>
<path d="M1011.21 716.201C1010.18 715.9 1009.23 715.399 1008.4 714.727C1006.01 713.081 1003.96 710.995 1002.37 708.581C999.998 704.914 998.923 700.572 999.309 696.235C999.492 691.508 1000.91 686.908 1003.41 682.884C1005.92 678.859 1009.44 675.545 1013.62 673.265L1013.23 673.821C1014.29 665.896 1015.28 659.083 1016.03 654.356C1016.32 651.775 1016.8 649.219 1017.46 646.708C1017.48 649.315 1017.3 651.918 1016.9 654.495C1016.43 659.333 1015.61 666.174 1014.63 674.127V674.461L1014.27 674.656C1010.35 676.876 1007.06 680.032 1004.7 683.835C1002.33 687.638 1000.96 691.967 1000.71 696.429C1000.29 700.505 1001.2 704.606 1003.29 708.136C1004.79 710.524 1006.69 712.641 1008.91 714.393C1009.71 714.954 1010.47 715.558 1011.21 716.201Z" fill="#455A64"/>
<path d="M1016.09 657.943C1015.73 658.137 1014.44 656.274 1013.28 653.827C1012.13 651.38 1011.38 649.239 1011.77 649.044C1012.16 648.85 1013.42 650.713 1014.58 653.188C1015.73 655.663 1016.51 657.776 1016.09 657.943Z" fill="#455A64"/>
<path d="M1100.41 600.797L1104.43 509.949L1067.95 482.613L1034.86 498.631C1034.86 498.631 1033.74 539.814 1034.86 557.695C1035.99 575.575 1054.14 577.439 1054.14 577.439C1054.14 577.439 1053.72 587.922 1053.3 598.906C1053.17 602.062 1053.7 605.209 1054.84 608.159C1055.98 611.108 1057.71 613.796 1059.93 616.061C1062.15 618.327 1064.81 620.121 1067.75 621.336C1070.69 622.55 1073.85 623.16 1077.04 623.127C1083.08 623.09 1088.88 620.751 1093.23 616.594C1097.58 612.437 1100.16 606.781 1100.41 600.797Z" fill="#E5BAAB"/>
<path d="M1038.54 528.664C1038.53 529.122 1038.67 529.572 1038.92 529.956C1039.17 530.34 1039.54 530.64 1039.96 530.818C1040.39 530.996 1040.86 531.044 1041.32 530.956C1041.77 530.868 1042.19 530.648 1042.52 530.323C1042.84 529.999 1043.07 529.585 1043.15 529.135C1043.24 528.684 1043.2 528.218 1043.02 527.795C1042.84 527.372 1042.53 527.012 1042.15 526.761C1041.76 526.509 1041.3 526.378 1040.84 526.383C1040.23 526.383 1039.65 526.624 1039.21 527.051C1038.78 527.479 1038.54 528.059 1038.54 528.664Z" fill="#263238"/>
<path d="M1036.29 526.161C1036.58 526.467 1038.29 525.021 1040.76 524.882C1043.23 524.742 1045.11 525.938 1045.39 525.605C1045.67 525.271 1045.19 524.937 1044.38 524.381C1043.28 523.674 1041.98 523.333 1040.67 523.408C1039.37 523.483 1038.12 523.97 1037.11 524.798C1036.38 525.466 1036.13 526.05 1036.29 526.161Z" fill="#263238"/>
<path d="M1065.25 528.663C1065.25 529.114 1065.39 529.555 1065.64 529.93C1065.89 530.305 1066.25 530.598 1066.67 530.77C1067.09 530.943 1067.56 530.988 1068 530.9C1068.45 530.812 1068.86 530.595 1069.18 530.276C1069.5 529.957 1069.72 529.551 1069.81 529.108C1069.9 528.666 1069.85 528.208 1069.68 527.791C1069.51 527.374 1069.21 527.018 1068.83 526.768C1068.45 526.517 1068.01 526.383 1067.55 526.383C1066.94 526.383 1066.36 526.623 1065.93 527.051C1065.5 527.479 1065.25 528.059 1065.25 528.663Z" fill="#263238"/>
<path d="M1063.79 526.161C1064.08 526.467 1065.79 525.021 1068.28 524.882C1070.78 524.742 1072.61 525.938 1072.89 525.605C1073.17 525.271 1072.69 524.937 1071.88 524.381C1070.78 523.674 1069.48 523.333 1068.17 523.408C1066.87 523.483 1065.62 523.97 1064.61 524.798C1063.79 525.466 1063.79 526.05 1063.79 526.161Z" fill="#263238"/>
<path d="M1063.07 549.269C1059.28 551.198 1055.24 552.584 1051.06 553.385C1051.97 554.621 1053.28 555.519 1054.77 555.937C1056.26 556.355 1057.84 556.269 1059.28 555.693C1059.96 555.535 1060.61 555.241 1061.17 554.828C1061.74 554.415 1062.21 553.892 1062.57 553.29C1062.92 552.689 1063.15 552.022 1063.24 551.331C1063.32 550.639 1063.26 549.938 1063.07 549.269Z" fill="white"/>
<path d="M1054.17 577.439C1062.74 577.092 1071.02 574.323 1078.05 569.458C1078.05 569.458 1072.64 582.583 1054.56 581.832L1054.17 577.439Z" fill="#D78776"/>
<path d="M1156.88 561.282C1154.6 561.369 1152.35 560.86 1150.34 559.808C1147.36 558.232 1144.89 555.862 1143.21 552.967C1141.11 549.35 1139.33 545.564 1137.88 541.65C1134.51 533.307 1131.99 525.66 1130.25 520.043C1129.99 519.153 1129.74 518.347 1129.52 517.568C1129.29 516.789 1129.21 515.76 1129.04 515.121C1119.19 477.886 1086.24 470.934 1079.62 470.934C1072.63 470.934 1060.37 467.124 1042.5 485.505C1039.8 488.266 1037.51 491.393 1035.71 494.793C1031.76 499.705 1029.03 505.468 1027.74 511.617C1026.94 514.508 1026.8 517.536 1027.32 520.488C1027.65 520.488 1027.71 517.095 1029.11 511.923C1029.95 508.88 1031.12 505.934 1032.59 503.136C1031.03 510.016 1031.66 517.208 1034.41 523.713L1040.81 521.962L1063.77 514.231C1061.69 507.168 1064.75 498.436 1066.57 494.348L1066.74 494.209C1068.03 501.634 1071.67 508.462 1077.12 513.709C1082.58 518.956 1089.58 522.352 1097.1 523.408L1101.34 581.804C1131.84 575.353 1131.14 534.892 1130.95 526.661C1132.35 531.305 1134.15 536.616 1136.39 542.206C1137.89 546.209 1139.77 550.064 1142 553.718C1143.9 556.793 1146.66 559.255 1149.94 560.809C1152.16 561.841 1154.63 562.199 1157.04 561.838C1157.94 561.757 1158.8 561.43 1159.51 560.893C1159.51 560.893 1158.48 561.171 1156.88 561.282Z" fill="#263238"/>
<path d="M1054.84 546.961C1053.53 546.617 1052.17 546.448 1050.8 546.46C1050.16 546.46 1049.54 546.321 1049.4 545.876C1049.32 545.188 1049.45 544.492 1049.77 543.874L1051.45 538.785C1052.66 535.143 1053.67 531.833 1054.25 529.442C1054.72 528.166 1055.03 526.841 1055.18 525.493C1054.49 526.663 1053.95 527.915 1053.58 529.22C1052.74 531.583 1051.62 534.781 1050.41 538.48C1049.85 540.259 1049.32 541.983 1048.78 543.596C1048.42 544.4 1048.34 545.301 1048.56 546.155C1048.65 546.375 1048.79 546.57 1048.97 546.725C1049.15 546.88 1049.36 546.99 1049.6 547.044C1049.96 547.094 1050.33 547.094 1050.69 547.044C1052.07 547.188 1053.47 547.16 1054.84 546.961Z" fill="#263238"/>
<path d="M1106.34 546.21C1106.05 543.236 1106.39 540.236 1107.32 537.395C1107.8 535.978 1108.65 534.714 1109.79 533.735C1110.93 532.757 1112.32 532.1 1113.8 531.834C1115.53 531.763 1117.22 532.32 1118.57 533.4C1119.91 534.481 1120.81 536.01 1121.1 537.701C1121.3 539.408 1120.99 541.137 1120.2 542.667C1119.41 544.198 1118.18 545.46 1116.66 546.294C1115.12 547.092 1113.42 547.532 1111.69 547.58C1109.95 547.628 1108.23 547.283 1106.64 546.572" fill="#E5BAAB"/>
<path d="M1111.5 543.596C1111.5 543.402 1112.48 543.847 1113.77 543.457C1114.58 543.196 1115.28 542.691 1115.79 542.013C1116.29 541.334 1116.57 540.517 1116.58 539.675C1116.64 539.254 1116.62 538.824 1116.51 538.413C1116.4 538.001 1116.2 537.617 1115.93 537.284C1115.38 536.851 1114.67 536.642 1113.97 536.7C1112.62 536.839 1111.67 537.173 1111.58 536.95C1111.5 536.728 1112.2 536.116 1113.8 535.671C1114.32 535.533 1114.86 535.514 1115.38 535.615C1115.91 535.716 1116.4 535.935 1116.83 536.255C1117.3 536.7 1117.66 537.25 1117.88 537.859C1118.09 538.468 1118.16 539.12 1118.07 539.759C1118 540.988 1117.53 542.162 1116.72 543.096C1116.06 543.885 1115.11 544.385 1114.08 544.486C1112.26 544.681 1111.5 543.708 1111.5 543.596Z" fill="#D78776"/>
<path d="M1083.97 1253.79V1227.76L1133.19 1227.45L1133.58 1265.52L1130.55 1265.74C1116.97 1266.58 1061.47 1269.02 1052.37 1266.35C1042.24 1263.38 1083.97 1253.79 1083.97 1253.79Z" fill="#F5F5F5"/>
<path d="M1051.22 1263.96C1051.22 1263.52 1069.63 1263.13 1092.33 1263.13C1115.04 1263.13 1133.42 1263.52 1133.42 1263.96C1133.42 1264.41 1115.04 1264.8 1092.33 1264.8C1069.63 1264.8 1051.22 1264.44 1051.22 1263.96Z" fill="#263238"/>
<path d="M1083.13 1259.1C1082.71 1259.32 1081.75 1258.37 1080.77 1257.12C1079.79 1255.87 1079.14 1254.73 1079.45 1254.34C1079.76 1253.95 1081.05 1254.7 1082.12 1256.07C1083.18 1257.43 1083.44 1258.87 1083.13 1259.1Z" fill="#263238"/>
<path d="M1079.99 1260.82C1079.54 1260.99 1078.67 1259.79 1077.77 1258.29C1076.87 1256.79 1076.26 1255.51 1076.62 1255.15C1076.99 1254.79 1078.25 1255.81 1079.2 1257.46C1080.16 1259.1 1080.41 1260.65 1079.99 1260.82Z" fill="#263238"/>
<path d="M1118.6 1263.8C1118.43 1263.66 1118.82 1262.74 1119.67 1261.38C1120.79 1259.54 1122.26 1257.94 1123.99 1256.65C1125.78 1255.29 1127.99 1254.58 1130.25 1254.65C1131.99 1254.65 1132.88 1255.4 1132.8 1255.59C1132.71 1255.79 1131.73 1255.59 1130.27 1255.82C1128.35 1256.08 1126.52 1256.83 1124.97 1257.98C1123.38 1259.21 1121.93 1260.59 1120.62 1262.1C1119.53 1263.24 1118.8 1263.93 1118.6 1263.8Z" fill="#263238"/>
<path d="M1082.96 1254.29C1083.21 1253.9 1084.31 1254.09 1085.54 1254.51C1086.78 1254.93 1087.79 1255.48 1087.7 1255.93C1087.62 1256.37 1086.39 1256.57 1084.9 1256.09C1083.41 1255.62 1082.74 1254.59 1082.96 1254.29Z" fill="#263238"/>
<path d="M1083.75 1251.67C1083.75 1251.23 1085.09 1250.86 1086.69 1250.89C1088.29 1250.92 1089.5 1251.31 1089.5 1251.75C1089.5 1252.2 1088.21 1252.59 1086.55 1252.56C1084.9 1252.53 1083.69 1252.14 1083.75 1251.67Z" fill="#263238"/>
<path d="M1040.03 802.128L1013.09 806.605L1028.61 825.514C1033.07 914.5 1031.97 1000.84 1036.1 1043.86C1036.72 1050.4 1064.55 1255.2 1061.77 1250.5L1143.74 1253.9L1119.27 1048.12L1130.86 865.335C1143.43 843.739 1147.11 818.169 1141.13 793.952L1139.11 785.749" fill="#455A64"/>
<path d="M845.934 618.262L780.704 840.034C777.339 851.476 783.97 863.455 795.516 866.79L1162.15 972.688C1173.7 976.023 1185.78 969.451 1189.15 958.009L1254.38 736.237C1257.74 724.795 1251.11 712.816 1239.57 709.481L872.933 603.583C861.387 600.248 849.299 606.82 845.934 618.262Z" fill="#407BFF"/>
<g opacity="0.3">
<path opacity="0.3" d="M845.934 618.262L780.704 840.035C777.339 851.476 783.97 863.455 795.516 866.79L1162.15 972.688C1173.7 976.023 1185.78 969.452 1189.15 958.01L1254.38 736.237C1257.74 724.796 1251.11 712.817 1239.57 709.482L872.933 603.584C861.387 600.249 849.299 606.821 845.934 618.262Z" fill="black"/>
</g>
<path d="M1182.27 759.303C1180.63 764.817 1177.38 769.727 1172.93 773.412C1168.48 777.097 1163.03 779.392 1157.26 780.008C1151.49 780.624 1145.67 779.533 1140.53 776.873C1135.39 774.213 1131.16 770.102 1128.37 765.061C1125.58 760.019 1124.37 754.273 1124.87 748.547C1125.38 742.821 1127.59 737.372 1131.22 732.888C1134.85 728.405 1139.74 725.087 1145.27 723.354C1150.8 721.622 1156.72 721.551 1162.29 723.153C1166 724.22 1169.47 726.002 1172.48 728.399C1175.49 730.795 1178 733.757 1179.86 737.116C1181.71 740.475 1182.88 744.164 1183.3 747.971C1183.71 751.779 1183.36 755.63 1182.27 759.303Z" fill="white"/>
<path d="M1188.11 791.56C1180.59 791.586 1173.31 788.89 1167.66 783.978C1162 779.066 1158.35 772.276 1157.39 764.884C1156.42 757.492 1158.22 750.006 1162.43 743.832C1166.65 737.659 1172.99 733.223 1180.27 731.357C1187.56 729.491 1195.27 730.324 1201.98 733.7C1208.69 737.075 1213.92 742.761 1216.69 749.689C1219.47 756.617 1219.59 764.31 1217.05 771.323C1214.5 778.337 1209.46 784.188 1202.87 787.778C1198.34 790.242 1193.27 791.543 1188.11 791.56ZM1188.11 733.33C1182.88 733.301 1177.75 734.718 1173.3 737.421C1168.84 740.125 1165.23 744.008 1162.88 748.634C1160.53 753.259 1159.53 758.443 1160 763.601C1160.46 768.759 1162.37 773.686 1165.5 777.828C1168.64 781.97 1172.88 785.162 1177.75 787.044C1182.62 788.926 1187.92 789.424 1193.06 788.481C1198.19 787.538 1202.97 785.192 1206.83 781.708C1210.7 778.223 1213.5 773.738 1214.93 768.758C1216.12 764.633 1216.33 760.292 1215.54 756.075C1214.75 751.858 1212.99 747.878 1210.39 744.448C1207.79 741.017 1204.43 738.228 1200.57 736.3C1196.7 734.371 1192.44 733.355 1188.11 733.33Z" fill="white"/>
<path d="M838.712 776.266L832.09 798.735L829.761 798.067L835.766 777.656L830.406 776.099L831.023 774.041L838.712 776.266Z" fill="white"/>
<path d="M856.139 803.406L855.522 805.464L839.499 801.015L839.976 799.374L852.098 792.951C855.409 791.199 856.336 789.808 856.784 788.279C857.542 785.665 856.167 783.551 852.716 782.55C851.581 782.145 850.37 781.997 849.17 782.117C847.971 782.237 846.813 782.623 845.784 783.246L844.55 781.355C845.89 780.567 847.389 780.079 848.94 779.925C850.491 779.771 852.058 779.955 853.529 780.465C858.131 781.8 860.348 784.97 859.142 788.807C858.524 790.948 857.262 792.673 853.361 794.758L843.427 800.042L856.139 803.406Z" fill="white"/>
<path d="M881.03 806.577L876.484 805.27L874.744 811.165L872.415 810.498L874.155 804.574L861.359 800.876L861.836 799.208L878.252 787.806L880.834 788.557L864.979 799.68L874.828 802.461L876.344 797.261L878.617 797.928L877.101 803.128L881.619 804.435L881.03 806.577Z" fill="white"/>
<path d="M915.77 816.504L911.224 815.169L909.484 821.092L907.155 820.425L908.895 814.502L896.099 810.803L896.604 809.135L912.992 797.706L915.574 798.457L899.719 809.58L909.569 812.361L911.084 807.161L913.357 807.8L911.842 813.028L916.359 814.335L915.77 816.504Z" fill="white"/>
<path d="M935.806 821.51C934.655 825.319 931.092 827.544 925.564 825.931C922.546 825.179 919.934 823.307 918.268 820.703L919.951 819.202C921.368 821.509 923.647 823.169 926.293 823.818C930.138 824.93 932.747 823.651 933.533 821.037C934.319 818.423 933.112 815.809 927.331 814.168L922.505 812.75L926.995 801.822L939.398 805.409L938.809 807.467L928.426 804.463L925.62 811.415L928.426 812.25C935.161 814.113 936.957 817.533 935.806 821.51Z" fill="white"/>
<path d="M958.227 827.878C957.934 828.846 957.441 829.742 956.779 830.511C956.117 831.28 955.301 831.904 954.382 832.343C953.464 832.783 952.463 833.028 951.444 833.063C950.425 833.099 949.409 832.924 948.462 832.549C942.429 830.825 940.38 825.736 942.457 818.645C944.702 811.026 950.089 808.245 956.235 810.025C958.135 810.478 959.872 811.44 961.258 812.806L959.771 814.391C958.666 813.23 957.241 812.418 955.674 812.055C950.791 810.637 946.722 812.861 944.954 818.951C944.772 819.564 944.622 820.186 944.505 820.814C945.521 819.764 946.823 819.029 948.253 818.698C949.683 818.367 951.179 818.455 952.559 818.951C953.548 819.12 954.49 819.493 955.324 820.047C956.158 820.6 956.866 821.321 957.4 822.163C957.935 823.005 958.285 823.948 958.427 824.933C958.57 825.918 958.502 826.921 958.227 827.878ZM955.898 827.294C956.107 826.587 956.159 825.843 956.051 825.114C955.943 824.385 955.677 823.688 955.272 823.07C954.867 822.452 954.333 821.928 953.704 821.534C953.076 821.14 952.37 820.885 951.633 820.787C950.947 820.452 950.194 820.27 949.43 820.255C948.665 820.24 947.906 820.392 947.207 820.7C946.508 821.008 945.886 821.464 945.384 822.037C944.883 822.609 944.515 823.284 944.306 824.013C944.097 824.742 944.052 825.508 944.174 826.256C944.297 827.005 944.584 827.717 945.016 828.343C945.447 828.969 946.012 829.493 946.671 829.879C947.329 830.265 948.065 830.502 948.827 830.575C949.503 830.874 950.237 831.025 950.977 831.018C951.718 831.012 952.448 830.847 953.119 830.536C953.79 830.225 954.385 829.774 954.865 829.215C955.344 828.655 955.697 828 955.898 827.294Z" fill="white"/>
<path d="M989.18 837.165C988.086 840.919 984.466 843.005 978.994 841.42C975.974 840.656 973.358 838.788 971.67 836.192L973.354 834.663C974.745 836.964 976.992 838.631 979.611 839.307C983.372 840.391 985.953 839.307 986.795 836.526C987.637 833.745 986.178 831.493 981.969 830.297L980.341 829.824L980.846 828.128L989.433 822.121L977.843 818.784L978.433 816.727L993.025 820.926L992.548 822.566L983.765 828.712C988.563 830.269 990.247 833.495 989.18 837.165Z" fill="white"/>
<path d="M1011.99 843.422C1011.69 844.388 1011.2 845.283 1010.53 846.049C1009.86 846.815 1009.04 847.435 1008.12 847.872C1007.2 848.308 1006.2 848.551 1005.18 848.584C1004.16 848.618 1003.15 848.441 1002.2 848.066C996.195 846.342 994.147 841.253 996.223 834.162C998.468 826.515 1003.86 823.762 1010 825.514C1011.89 825.985 1013.63 826.944 1015.02 828.294L1013.54 829.88C1012.42 828.739 1011 827.93 1009.44 827.544C1004.56 826.153 1000.49 828.35 998.693 834.44C998.521 835.054 998.38 835.676 998.272 836.303C999.285 835.248 1000.59 834.512 1002.02 834.186C1003.45 833.859 1004.95 833.957 1006.33 834.468C1007.32 834.636 1008.26 835.01 1009.1 835.565C1009.94 836.12 1010.64 836.844 1011.18 837.689C1011.71 838.534 1012.06 839.482 1012.2 840.469C1012.34 841.457 1012.27 842.463 1011.99 843.422ZM1009.66 842.81C1009.86 842.103 1009.91 841.362 1009.8 840.637C1009.68 839.912 1009.42 839.218 1009.01 838.602C1008.61 837.987 1008.08 837.464 1007.46 837.067C1006.83 836.671 1006.13 836.41 1005.4 836.303C1004.71 835.968 1003.96 835.787 1003.2 835.772C1002.43 835.757 1001.67 835.909 1000.97 836.216C1000.27 836.524 999.652 836.981 999.151 837.553C998.649 838.126 998.281 838.8 998.072 839.53C997.863 840.259 997.818 841.025 997.941 841.773C998.064 842.521 998.351 843.233 998.782 843.86C999.214 844.486 999.779 845.01 1000.44 845.396C1001.1 845.782 1001.83 846.019 1002.59 846.092C1003.28 846.389 1004.01 846.538 1004.76 846.526C1005.5 846.513 1006.24 846.342 1006.91 846.022C1007.58 845.702 1008.18 845.242 1008.65 844.673C1009.13 844.105 1009.47 843.441 1009.66 842.727V842.81Z" fill="white"/>
<path d="M1037.47 833.661L1037 835.302L1021.39 853.405L1018.87 852.682L1034.19 834.941L1022.52 831.604L1021.28 835.803L1018.98 835.135L1020.83 828.878L1037.47 833.661Z" fill="white"/>
<path d="M1069.89 843.033L1069.41 844.674L1053.81 862.749L1051.28 862.026L1066.6 844.312L1054.93 840.947L1053.69 845.146L1051.39 844.479L1053.25 838.222L1069.89 843.033Z" fill="white"/>
<path d="M1087.45 865.697C1086.27 869.673 1082.15 871.258 1076.73 869.59C1071.32 867.921 1068.71 864.584 1069.88 860.608C1070.24 859.324 1071.03 858.201 1072.13 857.427C1073.22 856.652 1074.55 856.273 1075.89 856.353C1074.93 855.722 1074.2 854.795 1073.82 853.715C1073.44 852.635 1073.43 851.462 1073.79 850.374C1074.85 846.731 1078.67 845.341 1083.47 846.731C1088.26 848.122 1090.79 851.32 1089.7 855.074C1089.39 856.182 1088.73 857.161 1087.81 857.863C1086.9 858.566 1085.78 858.953 1084.62 858.967C1085.78 859.611 1086.7 860.625 1087.21 861.845C1087.72 863.066 1087.81 864.422 1087.45 865.697ZM1085.07 864.974C1085.88 862.193 1083.97 859.773 1079.96 858.605C1075.95 857.438 1073.06 858.605 1072.24 861.386C1071.43 864.167 1073.28 866.586 1077.32 867.754C1081.36 868.922 1084.22 867.754 1085.07 864.974ZM1080.63 856.77C1084.17 857.799 1086.75 856.77 1087.45 854.406C1088.15 852.043 1086.41 849.679 1083.02 848.706C1079.62 847.733 1076.96 848.706 1076.23 851.125C1075.5 853.544 1076.96 855.769 1080.63 856.77Z" fill="white"/>
<path d="M1110.99 866.864C1108.75 874.512 1103.36 877.292 1097.19 875.513C1095.3 875.052 1093.57 874.091 1092.19 872.732L1093.68 871.147C1094.78 872.301 1096.19 873.113 1097.75 873.483C1102.66 874.901 1106.7 872.676 1108.5 866.586C1108.68 865.973 1108.83 865.351 1108.95 864.723C1107.93 865.778 1106.63 866.514 1105.2 866.841C1103.77 867.167 1102.27 867.069 1100.89 866.559C1099.91 866.387 1098.97 866.011 1098.14 865.456C1097.31 864.901 1096.61 864.179 1096.08 863.337C1095.55 862.495 1095.2 861.551 1095.06 860.568C1094.93 859.586 1095 858.585 1095.28 857.632C1095.57 856.662 1096.06 855.762 1096.72 854.991C1097.38 854.22 1098.2 853.594 1099.12 853.154C1100.04 852.714 1101.04 852.47 1102.06 852.437C1103.08 852.403 1104.1 852.582 1105.05 852.96C1111.02 854.684 1113.07 859.773 1110.99 866.864ZM1109.09 861.497C1109.23 860.768 1109.23 860.017 1109.08 859.289C1108.92 858.561 1108.63 857.87 1108.2 857.259C1107.77 856.647 1107.23 856.126 1106.59 855.727C1105.96 855.327 1105.25 855.058 1104.51 854.935C1103.84 854.667 1103.12 854.541 1102.4 854.568C1101.67 854.594 1100.96 854.77 1100.31 855.086C1099.66 855.402 1099.09 855.849 1098.62 856.4C1098.16 856.951 1097.81 857.592 1097.62 858.283C1097.42 858.973 1097.37 859.697 1097.47 860.407C1097.58 861.118 1097.83 861.799 1098.21 862.406C1098.6 863.013 1099.11 863.534 1099.71 863.933C1100.31 864.332 1100.99 864.601 1101.71 864.723C1102.4 865.004 1103.15 865.143 1103.9 865.133C1104.66 865.122 1105.4 864.961 1106.09 864.66C1106.78 864.359 1107.4 863.924 1107.91 863.381C1108.43 862.838 1108.83 862.197 1109.09 861.497Z" fill="white"/>
<path d="M1137.23 862.471L1130.61 884.939L1128.28 884.272L1134.29 863.861L1128.93 862.304L1129.54 860.246L1137.23 862.471Z" fill="white"/>
<path d="M1154.55 889.611L1153.93 891.669L1138.02 887.22L1138.5 885.579L1150.62 879.155C1153.93 877.403 1154.86 876.013 1155.3 874.484C1156.06 871.897 1154.69 869.756 1151.24 868.755C1150.1 868.349 1148.89 868.201 1147.69 868.322C1146.49 868.442 1145.33 868.828 1144.3 869.45L1143.07 867.559C1144.41 866.776 1145.91 866.293 1147.46 866.144C1149.01 865.995 1150.58 866.184 1152.05 866.697C1156.65 868.004 1158.87 871.174 1157.66 875.04C1157.02 877.181 1155.78 878.905 1151.88 880.991L1141.95 886.274L1154.55 889.611Z" fill="white"/>
<path d="M1176.18 891.113C1175.06 894.867 1171.47 896.953 1166 895.368C1162.97 894.604 1160.35 892.725 1158.67 890.112L1160.36 888.61C1161.75 890.911 1163.99 892.579 1166.61 893.254C1170.37 894.339 1172.96 893.254 1173.77 890.474C1174.58 887.693 1173.18 885.44 1168.97 884.245L1167.34 883.772L1167.85 882.048L1176.41 876.069L1164.82 872.732L1165.43 870.674L1180 874.873L1179.52 876.514L1170.77 882.659C1175.54 884.272 1177.22 887.498 1176.18 891.113Z" fill="white"/>
<path d="M995.174 863.972L992.31 873.717L1173.92 926.14L1176.79 916.395L995.174 863.972Z" fill="white"/>
<path d="M1077.9 908.948L1075.03 918.72L1168.2 945.612L1171.07 935.841L1077.9 908.948Z" fill="white"/>
<path d="M909.93 714.791L860.44 700.497C853.06 698.365 845.334 702.566 843.183 709.879L834.38 739.806C832.229 747.12 836.468 754.776 843.848 756.908L893.338 771.202C900.717 773.334 908.444 769.134 910.595 761.82L919.397 731.893C921.548 724.58 917.31 716.923 909.93 714.791Z" fill="#263238"/>
<path d="M835.123 737.39L836.189 733.775L875.475 745.121C877.656 745.752 880 745.498 881.992 744.416C883.983 743.334 885.46 741.512 886.096 739.351C886.733 737.19 886.477 734.867 885.385 732.893C884.293 730.919 882.454 729.456 880.274 728.826L840.987 717.508L842.054 713.893L881.34 725.211C884.351 726.231 886.849 728.362 888.316 731.161C889.783 733.959 890.106 737.21 889.217 740.238C888.329 743.266 886.297 745.838 883.545 747.421C880.792 749.003 877.53 749.474 874.437 748.736L835.123 737.39Z" fill="white"/>
<path d="M888.37 737.984L887.299 741.614L914.232 749.419L915.304 745.789L888.37 737.984Z" fill="white"/>
<path d="M1065.76 709.403L869.766 652.793L864.866 669.452L1060.86 726.062L1065.76 709.403Z" fill="white"/>
<path d="M1096.51 480.5C1094.47 479.721 1092.64 478.473 1091.18 476.859C1089.72 475.244 1088.66 473.309 1088.1 471.212C1087.59 469.1 1087.67 466.892 1088.33 464.821C1088.98 462.751 1090.19 460.895 1091.83 459.449C1093.51 458.06 1095.57 457.207 1097.75 457.003C1099.93 456.8 1102.12 457.255 1104.04 458.309C1106.96 460.315 1109.11 463.262 1110.1 466.652C1111.02 468.839 1111.27 471.247 1110.83 473.576C1110.27 475.253 1109.28 476.758 1107.95 477.943C1106.63 479.127 1105.02 479.951 1103.28 480.333C1099.78 481.024 1096.2 481.118 1092.67 480.611" fill="#263238"/>
<path d="M1168.83 530.054C1169.15 528.866 1169.21 527.623 1169 526.411C1168.68 525.036 1168.01 523.763 1167.06 522.713C1165.74 521.36 1164.07 520.397 1162.23 519.932C1159.97 519.385 1157.62 519.225 1155.3 519.459C1152.75 519.626 1150.03 520.071 1147.05 520.127C1143.87 520.321 1140.69 519.576 1137.93 517.985C1135.17 515.934 1133.23 512.978 1132.46 509.643C1130.61 503.764 1127.56 498.329 1123.48 493.681C1120.15 489.884 1116.23 486.637 1111.86 484.06C1107.74 481.826 1103.4 480.027 1098.9 478.693C1098.9 478.693 1099.24 478.693 1099.88 478.693C1100.53 478.693 1101.48 478.915 1102.69 479.249C1106.09 480.112 1109.36 481.402 1112.43 483.086C1116.98 485.604 1121.07 488.856 1124.55 492.708C1128.81 497.429 1132.02 502.992 1133.95 509.031C1134.61 512.052 1136.32 514.749 1138.78 516.651C1141.32 518.118 1144.25 518.814 1147.19 518.653C1150 518.653 1152.81 518.236 1155.39 518.124C1157.84 517.934 1160.31 518.17 1162.68 518.82C1164.69 519.369 1166.48 520.491 1167.85 522.045C1168.85 523.238 1169.51 524.68 1169.76 526.216C1169.89 527.15 1169.8 528.102 1169.5 528.997C1169.11 529.804 1168.86 530.082 1168.83 530.054Z" fill="#263238"/>
<path d="M1117.11 546.043C1117.11 545.904 1118.46 546.961 1118.46 549.353C1118.44 550.055 1118.28 550.747 1117.98 551.387C1117.69 552.026 1117.27 552.602 1116.75 553.079C1116.11 553.679 1115.34 554.127 1114.5 554.387C1113.66 554.647 1112.76 554.713 1111.89 554.58C1111.03 554.427 1110.21 554.083 1109.49 553.573C1108.78 553.062 1108.19 552.399 1107.77 551.633C1107.43 551.017 1107.22 550.34 1107.15 549.643C1107.09 548.945 1107.16 548.241 1107.38 547.573C1108.13 545.293 1109.68 544.792 1109.7 544.792C1109.73 544.792 1108.75 545.821 1108.41 547.767C1108.21 548.848 1108.41 549.964 1108.98 550.91C1109.32 551.466 1109.79 551.944 1110.33 552.312C1110.88 552.681 1111.5 552.933 1112.15 553.051C1112.8 553.145 1113.46 553.102 1114.09 552.925C1114.73 552.747 1115.32 552.44 1115.82 552.022C1116.67 551.316 1117.23 550.327 1117.39 549.241C1117.56 547.323 1116.78 546.155 1117.11 546.043Z" fill="#E0E0E0"/>
<path d="M1109.73 484.004C1103.72 478.073 1096.06 474.055 1087.73 472.463C1092.1 472.293 1096.44 473.27 1100.3 475.297C1104.16 477.324 1107.42 480.328 1109.73 484.004Z" fill="#407BFF"/>
<path d="M1120.2 542.623C1120.2 542.429 1121.01 542.373 1121.52 543.291C1121.64 543.566 1121.71 543.864 1121.71 544.167C1121.71 544.469 1121.64 544.768 1121.52 545.043C1121.33 545.388 1121.06 545.678 1120.72 545.883C1120.39 546.089 1120 546.202 1119.61 546.211C1119.27 546.234 1118.94 546.183 1118.62 546.062C1118.31 545.941 1118.03 545.753 1117.8 545.511C1117.57 545.269 1117.39 544.979 1117.29 544.662C1117.19 544.346 1117.15 544.01 1117.2 543.68C1117.2 542.734 1117.87 542.429 1118.01 542.54C1118.15 542.651 1118.01 543.096 1118.26 543.652C1118.3 543.957 1118.46 544.235 1118.7 544.43C1118.94 544.626 1119.24 544.726 1119.55 544.709C1119.69 544.716 1119.82 544.691 1119.95 544.639C1120.07 544.586 1120.19 544.505 1120.27 544.404C1120.36 544.302 1120.43 544.181 1120.46 544.051C1120.5 543.921 1120.5 543.785 1120.48 543.652C1120.48 543.124 1120.14 542.846 1120.2 542.623Z" fill="#E0E0E0"/>
<path d="M1101.01 598.016C1101.29 598.991 1101.4 600.008 1101.31 601.02C1101.26 603.791 1100.71 606.532 1099.69 609.112C1098.15 612.978 1095.66 616.4 1092.45 619.067C1088.42 622.273 1083.48 624.159 1078.32 624.463C1073.17 624.767 1068.04 623.474 1063.66 620.763C1060.13 618.511 1057.23 615.412 1055.24 611.754C1053.91 609.313 1053.02 606.658 1052.63 603.912C1052.44 602.919 1052.44 601.901 1052.63 600.908C1053.21 604.532 1054.42 608.03 1056.19 611.253C1058.22 614.633 1061.03 617.492 1064.38 619.595C1068.55 622.079 1073.38 623.251 1078.24 622.958C1083.09 622.666 1087.74 620.921 1091.58 617.955C1094.67 615.469 1097.11 612.284 1098.7 608.667C1100.06 605.269 1100.84 601.669 1101.01 598.016Z" fill="#455A64"/>
<path d="M1095.11 1235.29C1095.02 1235.05 1094.96 1234.8 1094.94 1234.54C1094.94 1233.96 1094.75 1233.23 1094.63 1232.32C1094.35 1230.26 1093.96 1227.4 1093.48 1223.78C1092.53 1216.36 1091.27 1205.62 1089.78 1192.3C1086.78 1165.72 1083.1 1128.95 1079.79 1088.27C1076.48 1047.59 1074.18 1010.66 1072.89 983.936C1072.19 970.588 1071.74 959.771 1071.48 952.291C1071.37 948.583 1071.29 945.719 1071.23 943.698C1071.23 942.78 1071.23 942.029 1071.23 941.445C1071.2 941.196 1071.2 940.944 1071.23 940.695C1071.26 940.944 1071.26 941.196 1071.23 941.445C1071.23 942.029 1071.23 942.78 1071.4 943.67C1071.54 945.756 1071.71 948.62 1071.96 952.263C1072.41 959.854 1073.03 970.616 1073.81 983.88C1075.44 1010.58 1077.91 1047.45 1081.19 1088.13C1084.48 1128.82 1088.01 1165.61 1090.71 1192.19C1092.08 1205.43 1093.18 1216.16 1093.96 1223.72C1094.33 1227.34 1094.61 1230.2 1094.8 1232.29C1094.8 1233.21 1094.94 1233.93 1095 1234.51C1095.07 1234.77 1095.11 1235.03 1095.11 1235.29Z" fill="#263238"/>
<path d="M1140.91 1235.49C1139.88 1235.77 1138.83 1235.92 1137.77 1235.93C1135.74 1236.1 1132.8 1236.29 1129.18 1236.46C1121.91 1236.82 1111.86 1236.99 1100.78 1236.82C1089.7 1236.66 1079.65 1236.32 1072.41 1236.04L1063.82 1235.63C1062.76 1235.65 1061.69 1235.54 1060.65 1235.29C1061.69 1235.07 1062.76 1234.99 1063.82 1235.04C1065.84 1235.04 1068.79 1235.04 1072.44 1235.04C1079.68 1235.04 1089.72 1235.21 1100.81 1235.38C1111.89 1235.54 1121.88 1235.54 1129.15 1235.38H1137.74C1138.79 1235.28 1139.86 1235.32 1140.91 1235.49Z" fill="#263238"/>
<path d="M1156.88 692.314L1108.69 660.946C1108.69 660.946 1085.15 728.13 1077.83 728.798C1037.87 732.413 995.1 719.26 980.116 714.087C978.6 712.391 976.86 710.361 974.924 707.858C973.274 705.713 972.003 703.306 971.164 700.74C969.993 697.592 969.275 694.297 969.031 690.951C969.09 690.31 968.946 689.666 968.62 689.108C968.294 688.551 967.802 688.108 967.211 687.839C966.62 687.571 965.959 687.491 965.32 687.61C964.682 687.729 964.096 688.041 963.643 688.504C961.904 690.729 961.455 699.21 965.411 708.359C969.368 717.508 955.393 710.222 950.258 707.664C945.123 705.105 928.847 697.931 926.799 698.876C923.824 700.267 924.75 703.687 929.941 706.134C935.133 708.581 950.174 716.952 948.687 719.565C947.199 722.179 921.242 708.776 921.242 708.776C921.242 708.776 916.163 705.05 914.339 708.025C911.028 713.392 939.595 725.572 942.401 726.657C944.309 727.435 942.794 730.327 940.773 729.437C938.753 728.548 915.181 715.533 911.786 720.928C909.176 725.099 935.273 731.189 938.641 736.556C942.008 741.923 919.306 729.966 916.977 734.026C916.107 735.555 915.686 736.806 929.717 741.84C939.987 745.023 950.423 747.66 960.978 749.737V749.876C960.978 749.876 1104.26 813.445 1131.37 752.129C1160.41 686.78 1156.88 692.314 1156.88 692.314Z" fill="#E5BAAB"/>
<path d="M1125.25 600.464C1125.25 600.464 1169.03 605.58 1164.54 657.192C1161.6 689.1 1152.56 720.161 1137.88 748.708L1080.46 718.842C1093.39 693.286 1103.11 666.26 1109.42 638.366L1125.39 600.464H1125.25Z" fill="#407BFF"/>
<g opacity="0.2">
<path opacity="0.2" d="M1125.25 600.464C1125.25 600.464 1169.03 605.58 1164.54 657.192C1161.6 689.1 1152.56 720.161 1137.88 748.708L1080.46 718.842C1093.39 693.286 1103.11 666.26 1109.42 638.366L1125.39 600.464H1125.25Z" fill="white"/>
</g>
<path d="M1126.2 600.603C1126.2 600.964 1121.46 602.243 1114.14 602.744L1114.67 601.743L1120.09 610.447L1123.51 616.008L1124.32 617.371L1122.75 617.065C1117.57 616.305 1112.34 615.868 1107.09 615.758C1108.53 615.289 1110.04 615.054 1111.56 615.063C1115.38 614.822 1119.23 615.027 1123 615.675L1122.28 616.731L1118.8 611.17L1113.55 602.382L1112.96 601.409H1114.08C1117.67 601.242 1120.73 601.02 1122.84 600.825C1123.95 600.638 1125.08 600.563 1126.2 600.603Z" fill="#455A64"/>
<path d="M1151.96 622.654C1151.96 622.905 1147.9 621.931 1140.91 621.765L1141.38 621.236C1143.04 627.743 1145.23 636.419 1147.78 646.43L1148.06 647.598L1146.91 647.292L1129.07 642.509L1124.21 641.175L1125.17 640.424C1125.56 650.017 1125.92 658.916 1126.23 666.563V667.397L1125.45 667.175L1108.3 662.42L1103.56 661.029C1102.99 660.887 1102.44 660.672 1101.93 660.39C1102.52 660.399 1103.11 660.493 1103.67 660.668L1108.5 661.752L1125.7 665.979L1124.94 666.619C1124.55 658.972 1124.1 650.073 1123.62 640.507V639.478L1124.63 639.756L1129.49 641.091L1147.28 646.013L1146.41 646.875C1144.05 636.781 1142.03 628.049 1140.49 621.486L1140.35 620.93H1140.96C1143.71 621.072 1146.44 621.416 1149.13 621.959C1150.1 622.09 1151.05 622.323 1151.96 622.654Z" fill="#455A64"/>
<path d="M1155.5 693.176C1154.71 692.602 1154.03 691.897 1153.48 691.09C1152.3 689.616 1151.01 687.169 1149.16 684.333H1149.92C1145.37 693.122 1140.06 701.496 1134.03 709.36L1133.47 710.111L1132.88 709.36C1130.08 705.884 1127.27 702.186 1124.46 698.237L1118.01 689.894H1119.08L1108.69 698.96L1104.04 702.936L1101.88 704.8L1100.84 705.689L1100.58 705.912H1100.44H1100.28C1100.28 706.162 1099.35 705.578 1099.55 705.328C1099.74 705.078 1099.55 705.328 1099.55 705.328V705.161C1099.55 705.161 1099.74 705.634 1099.83 705.606C1099.91 705.578 1099.83 705.606 1099.83 705.606L1099.35 705.745L1099.18 705.217C1097.53 699.655 1096.38 695.261 1095.67 692.091C1095.19 690.478 1095 688.793 1095.11 687.114C1095.11 687.114 1095.39 688.866 1096.26 691.952C1097.13 695.039 1098.45 699.46 1100.28 704.883L1099.63 704.494C1099.83 704.439 1100.05 704.439 1100.25 704.494C1100.39 704.541 1100.51 704.631 1100.6 704.75C1100.68 704.87 1100.73 705.014 1100.72 705.161C1100.74 705.29 1100.74 705.421 1100.72 705.55C1100.72 705.55 1100.72 705.55 1100.58 705.55L1100.19 705.384C1100.16 705.28 1100.1 705.185 1100.02 705.105L1099.85 704.939H1099.99L1100.22 704.716L1101.26 703.798L1103.39 701.908C1104.85 700.601 1106.36 699.127 1107.96 697.848L1118.21 688.81L1118.8 688.282L1119.3 688.921L1125.76 697.264C1128.73 701.101 1131.59 704.827 1134.17 708.387H1133.02C1139.05 700.605 1144.48 692.388 1149.27 683.804L1149.66 683.137L1150.06 683.777C1151.85 686.752 1152.86 689.338 1154.01 690.757C1155.16 692.175 1155.58 693.092 1155.5 693.176Z" fill="#455A64"/>
<path d="M1105.89 653.633C1105.87 654.578 1105.71 655.515 1105.41 656.414C1104.99 658.138 1104.35 660.585 1103.45 663.616C1101.68 669.65 1098.93 677.937 1095.39 686.863C1091.86 695.79 1088.15 703.715 1085.29 709.332C1083.86 712.113 1082.65 714.393 1081.76 715.923C1081.37 716.757 1080.87 717.534 1080.27 718.231C1081.44 715.039 1082.8 711.919 1084.34 708.887C1086.95 703.159 1090.45 695.233 1093.99 686.335C1097.53 677.436 1100.42 669.233 1102.41 663.282C1103.36 659.997 1104.53 656.774 1105.89 653.633Z" fill="#455A64"/>
<path d="M1126.2 600.603C1126.2 600.964 1121.46 602.243 1114.14 602.744L1114.67 601.743L1120.09 610.447L1123.51 616.008L1124.32 617.371L1122.75 617.065C1117.57 616.305 1112.34 615.868 1107.09 615.758C1108.53 615.289 1110.04 615.054 1111.56 615.063C1115.38 614.822 1119.23 615.027 1123 615.675L1122.28 616.731L1118.8 611.17L1113.55 602.382L1112.96 601.409H1114.08C1117.67 601.242 1120.73 601.02 1122.84 600.825C1123.95 600.638 1125.08 600.563 1126.2 600.603Z" fill="#455A64"/>
<path d="M1151.96 622.654C1151.96 622.905 1147.9 621.931 1140.91 621.765L1141.38 621.236C1143.04 627.743 1145.23 636.419 1147.78 646.43L1148.06 647.598L1146.91 647.292L1129.07 642.509L1124.21 641.175L1125.17 640.424C1125.56 650.017 1125.92 658.916 1126.23 666.563V667.397L1125.45 667.175L1108.3 662.42L1103.56 661.029C1102.99 660.887 1102.44 660.672 1101.93 660.39C1102.52 660.399 1103.11 660.493 1103.67 660.668L1108.5 661.752L1125.7 665.979L1124.94 666.619C1124.55 658.972 1124.1 650.073 1123.62 640.507V639.478L1124.63 639.756L1129.49 641.091L1147.28 646.013L1146.41 646.875C1144.05 636.781 1142.03 628.049 1140.49 621.486L1140.35 620.93H1140.96C1143.71 621.072 1146.44 621.416 1149.13 621.959C1150.1 622.09 1151.05 622.323 1151.96 622.654Z" fill="#455A64"/>
<path d="M1155.5 693.176C1154.71 692.602 1154.03 691.897 1153.48 691.09C1152.3 689.616 1151.01 687.169 1149.16 684.333H1149.92C1145.37 693.122 1140.06 701.496 1134.03 709.36L1133.47 710.111L1132.88 709.36C1130.08 705.884 1127.27 702.186 1124.46 698.237L1118.01 689.894H1119.08L1108.69 698.96L1104.04 702.936L1101.88 704.8L1100.84 705.689L1100.58 705.912H1100.44H1100.28C1100.28 706.162 1099.35 705.578 1099.55 705.328C1099.74 705.078 1099.55 705.328 1099.55 705.328V705.161C1099.55 705.161 1099.74 705.634 1099.83 705.606C1099.91 705.578 1099.83 705.606 1099.83 705.606L1099.35 705.745L1099.18 705.217C1097.53 699.655 1096.38 695.261 1095.67 692.091C1095.19 690.478 1095 688.793 1095.11 687.114C1095.11 687.114 1095.39 688.866 1096.26 691.952C1097.13 695.039 1098.45 699.46 1100.28 704.883L1099.63 704.494C1099.83 704.439 1100.05 704.439 1100.25 704.494C1100.39 704.541 1100.51 704.631 1100.6 704.75C1100.68 704.87 1100.73 705.014 1100.72 705.161C1100.74 705.29 1100.74 705.421 1100.72 705.55C1100.72 705.55 1100.72 705.55 1100.58 705.55L1100.19 705.384C1100.16 705.28 1100.1 705.185 1100.02 705.105L1099.85 704.939H1099.99L1100.22 704.716L1101.26 703.798L1103.39 701.908C1104.85 700.601 1106.36 699.127 1107.96 697.848L1118.21 688.81L1118.8 688.282L1119.3 688.921L1125.76 697.264C1128.73 701.101 1131.59 704.827 1134.17 708.387H1133.02C1139.05 700.605 1144.48 692.388 1149.27 683.804L1149.66 683.137L1150.06 683.777C1151.85 686.752 1152.86 689.338 1154.01 690.757C1155.16 692.175 1155.58 693.092 1155.5 693.176Z" fill="#455A64"/>
<path d="M1105.89 653.633C1105.87 654.578 1105.71 655.515 1105.41 656.414C1104.99 658.138 1104.35 660.585 1103.45 663.616C1101.68 669.65 1098.93 677.937 1095.39 686.863C1091.86 695.79 1088.15 703.715 1085.29 709.332C1083.86 712.113 1082.65 714.393 1081.76 715.923C1081.37 716.757 1080.87 717.534 1080.27 718.231C1081.44 715.039 1082.8 711.919 1084.34 708.887C1086.95 703.159 1090.45 695.233 1093.99 686.335C1097.53 677.436 1100.42 669.233 1102.41 663.282C1103.36 659.997 1104.53 656.774 1105.89 653.633Z" fill="#455A64"/>
</svg>
