<svg width="1397" height="1396" viewBox="0 0 1397 1396" fill="none" xmlns="http://www.w3.org/2000/svg">
<path d="M1160.52 349.746C1173.9 557.74 922.467 782.196 741.22 840.786C566.568 897.339 217.317 876.274 199.464 631.173C192.758 539.103 246.04 438.663 324.998 390.675C451.958 313.587 551.48 416.454 676.623 432.999C776.062 446.14 853.064 401.863 927.664 341.403C989.803 291.1 1150.46 193.701 1160.52 349.746Z" fill="#407BFF"/>
<path opacity="0.8" d="M1160.52 349.746C1173.9 557.74 922.467 782.196 741.22 840.786C566.568 897.339 217.317 876.274 199.464 631.173C192.758 539.103 246.04 438.663 324.998 390.675C451.958 313.587 551.48 416.454 676.623 432.999C776.062 446.14 853.064 401.863 927.664 341.403C989.803 291.1 1150.46 193.701 1160.52 349.746Z" fill="white"/>
<path d="M698.499 1193.53C997.687 1193.53 1240.23 1179.39 1240.23 1161.94C1240.23 1144.5 997.687 1130.36 698.499 1130.36C399.311 1130.36 156.771 1144.5 156.771 1161.94C156.771 1179.39 399.311 1193.53 698.499 1193.53Z" fill="#F5F5F5"/>
<path d="M410.5 743.681C469.595 684.67 469.595 588.995 410.5 529.984C351.404 470.973 255.592 470.973 196.497 529.984C137.401 588.995 137.401 684.67 196.497 743.681C255.592 802.692 351.404 802.692 410.5 743.681Z" fill="#407BFF"/>
<path opacity="0.4" d="M410.5 743.681C469.595 684.67 469.595 588.995 410.5 529.984C351.404 470.973 255.592 470.973 196.497 529.984C137.401 588.995 137.401 684.67 196.497 743.681C255.592 802.692 351.404 802.692 410.5 743.681Z" fill="black"/>
<path opacity="0.2" d="M428.772 658.169C440.572 589.088 394.057 523.534 324.877 511.751C255.696 499.968 190.049 546.417 178.248 615.498C166.448 684.579 212.963 750.133 282.144 761.916C351.324 773.7 416.972 727.251 428.772 658.169Z" fill="black"/>
<path d="M434.845 648.985C439.561 581.711 388.769 523.356 321.398 518.647C254.027 513.938 195.589 564.657 190.873 631.932C186.157 699.206 236.949 757.561 304.32 762.27C371.691 766.979 430.129 716.26 434.845 648.985Z" fill="#407BFF"/>
<path opacity="0.4" d="M434.845 648.985C439.561 581.711 388.769 523.356 321.398 518.647C254.027 513.938 195.589 564.657 190.873 631.932C186.157 699.206 236.949 757.561 304.32 762.27C371.691 766.979 430.129 716.26 434.845 648.985Z" fill="black"/>
<path d="M353.749 625.203L361.712 659.659C362.05 660.975 362.11 662.346 361.889 663.686C361.667 665.026 361.169 666.306 360.426 667.443C359.704 668.606 358.756 669.612 357.638 670.403C356.52 671.194 355.254 671.753 353.916 672.047L323.573 679.05L329.161 703.295C329.49 704.605 329.541 705.97 329.31 707.301C329.079 708.632 328.571 709.899 327.82 711.023C327.099 712.167 326.148 713.149 325.027 713.907C323.907 714.666 322.641 715.185 321.31 715.431C319.977 715.765 318.59 715.828 317.232 715.617C315.874 715.406 314.572 714.926 313.403 714.204C312.239 713.519 311.23 712.6 310.441 711.505C309.652 710.41 309.1 709.162 308.821 707.842L303.233 683.318L273.142 690.265C271.845 690.578 270.498 690.626 269.183 690.405C267.867 690.184 266.61 689.7 265.486 688.982C264.319 688.298 263.306 687.379 262.513 686.284C261.719 685.19 261.162 683.942 260.876 682.621C260.558 681.317 260.508 679.963 260.729 678.639C260.95 677.316 261.437 676.051 262.161 674.92C262.852 673.765 263.774 672.765 264.871 671.982C265.967 671.199 267.213 670.652 268.532 670.373L338.94 654.163L335.643 639.85L265.43 656.004C264.13 656.335 262.777 656.4 261.451 656.194C260.126 655.987 258.856 655.515 257.719 654.804C256.553 654.106 255.545 653.171 254.761 652.062C253.977 650.952 253.433 649.691 253.165 648.36L245.23 614.043C244.619 611.405 245.082 608.633 246.518 606.336C247.953 604.039 250.244 602.405 252.885 601.794L282.837 594.903L277.249 570.63C276.925 569.347 276.862 568.011 277.063 566.703C277.265 565.395 277.727 564.14 278.422 563.014C279.159 561.793 280.149 560.743 281.324 559.935C282.5 559.127 283.835 558.578 285.24 558.326C286.532 558.013 287.874 557.965 289.186 558.185C290.497 558.406 291.749 558.891 292.867 559.61C294.015 560.314 295.007 561.244 295.785 562.342C296.563 563.44 297.11 564.684 297.394 565.999L302.982 590.244L333.716 583.213C335.045 582.892 336.426 582.842 337.775 583.067C339.125 583.293 340.414 583.788 341.567 584.524C342.733 585.194 343.747 586.097 344.545 587.178C345.343 588.258 345.908 589.492 346.205 590.802C346.793 593.5 346.302 596.321 344.835 598.662C343.367 601.003 341.041 602.678 338.354 603.329L267.945 619.539L271.018 633.768L341.176 617.614C342.505 617.292 343.886 617.243 345.235 617.468C346.585 617.693 347.874 618.189 349.027 618.925C350.211 619.581 351.244 620.48 352.058 621.561C352.871 622.643 353.447 623.884 353.749 625.203Z" fill="#407BFF"/>
<g opacity="0.7">
<path opacity="0.7" d="M353.749 625.203L361.712 659.659C362.05 660.975 362.11 662.346 361.889 663.686C361.667 665.026 361.169 666.306 360.426 667.443C359.704 668.606 358.756 669.612 357.638 670.403C356.52 671.194 355.254 671.753 353.916 672.047L323.573 679.05L329.161 703.295C329.49 704.605 329.541 705.97 329.31 707.301C329.079 708.632 328.571 709.899 327.82 711.023C327.099 712.167 326.148 713.149 325.027 713.907C323.907 714.666 322.641 715.185 321.31 715.431C319.977 715.765 318.59 715.828 317.232 715.617C315.874 715.406 314.572 714.926 313.403 714.204C312.239 713.519 311.23 712.6 310.441 711.505C309.652 710.41 309.1 709.162 308.821 707.842L303.233 683.318L273.142 690.265C271.845 690.578 270.498 690.626 269.183 690.405C267.867 690.184 266.61 689.7 265.486 688.982C264.319 688.298 263.306 687.379 262.513 686.284C261.719 685.19 261.162 683.942 260.876 682.621C260.558 681.317 260.508 679.963 260.729 678.639C260.95 677.316 261.437 676.051 262.161 674.92C262.852 673.765 263.774 672.765 264.871 671.982C265.967 671.199 267.213 670.652 268.532 670.373L338.94 654.163L335.643 639.85L265.43 656.004C264.13 656.335 262.777 656.4 261.451 656.194C260.126 655.987 258.856 655.515 257.719 654.804C256.553 654.106 255.545 653.171 254.761 652.062C253.977 650.952 253.433 649.691 253.165 648.36L245.23 614.043C244.619 611.405 245.082 608.633 246.518 606.336C247.953 604.039 250.244 602.405 252.885 601.794L282.837 594.903L277.249 570.63C276.925 569.347 276.862 568.011 277.063 566.703C277.265 565.395 277.727 564.14 278.422 563.014C279.159 561.793 280.149 560.743 281.324 559.935C282.5 559.127 283.835 558.578 285.24 558.326C286.532 558.013 287.874 557.965 289.186 558.185C290.497 558.406 291.749 558.891 292.867 559.61C294.015 560.314 295.007 561.244 295.785 562.342C296.563 563.44 297.11 564.684 297.394 565.999L302.982 590.244L333.716 583.213C335.045 582.892 336.426 582.842 337.775 583.067C339.125 583.293 340.414 583.788 341.567 584.524C342.733 585.194 343.747 586.097 344.545 587.178C345.343 588.258 345.908 589.492 346.205 590.802C346.793 593.5 346.302 596.321 344.835 598.662C343.367 601.003 341.041 602.678 338.354 603.329L267.945 619.539L271.018 633.768L341.176 617.614C342.505 617.292 343.886 617.243 345.235 617.468C346.585 617.693 347.874 618.189 349.027 618.925C350.211 619.581 351.244 620.48 352.058 621.561C352.871 622.643 353.447 623.884 353.749 625.203Z" fill="white"/>
</g>
<path d="M626.412 516.665C664.06 472.178 658.465 405.637 613.914 368.042C569.363 330.448 502.727 336.035 465.078 380.523C427.429 425.01 433.025 491.551 477.576 529.145C522.127 566.74 588.763 561.153 626.412 516.665Z" fill="#407BFF"/>
<path opacity="0.4" d="M626.412 516.665C664.06 472.178 658.465 405.637 613.914 368.042C569.363 330.448 502.727 336.035 465.078 380.523C427.429 425.01 433.025 491.551 477.576 529.145C522.127 566.74 588.763 561.153 626.412 516.665Z" fill="black"/>
<path opacity="0.2" d="M614.101 504.938C645.308 467.243 640.004 411.424 602.255 380.262C564.507 349.101 508.608 354.397 477.401 392.092C446.195 429.786 451.499 485.605 489.247 516.767C526.996 547.928 582.895 542.632 614.101 504.938Z" fill="black"/>
<path d="M616.779 505.863C645.33 468.56 638.191 415.208 600.835 386.698C563.478 358.188 510.05 365.316 481.499 402.619C452.948 439.922 460.086 493.274 497.443 521.784C534.799 550.294 588.228 543.166 616.779 505.863Z" fill="#407BFF"/>
<path opacity="0.4" d="M616.779 505.863C645.33 468.56 638.191 415.208 600.835 386.698C563.478 358.188 510.05 365.316 481.499 402.619C452.948 439.922 460.086 493.274 497.443 521.784C534.799 550.294 588.228 543.166 616.779 505.863Z" fill="black"/>
<path d="M580.651 457.245L574.643 481.183C574.425 482.093 574.02 482.948 573.452 483.693C572.884 484.437 572.167 485.055 571.346 485.507C570.518 486.011 569.595 486.342 568.635 486.481C567.675 486.62 566.697 486.564 565.758 486.316L544.831 481.043L540.584 497.783C540.369 498.698 539.964 499.558 539.396 500.307C538.828 501.056 538.11 501.679 537.288 502.136C536.495 502.627 535.611 502.952 534.689 503.091C533.766 503.23 532.825 503.181 531.923 502.945C530.994 502.727 530.117 502.326 529.345 501.765C528.572 501.205 527.92 500.496 527.425 499.681C526.92 498.884 526.586 497.993 526.442 497.061C526.297 496.13 526.347 495.179 526.587 494.268L530.861 477.249L509.906 472.143C508.998 471.926 508.144 471.528 507.395 470.971C506.646 470.415 506.017 469.713 505.548 468.907C505.043 468.116 504.707 467.229 504.563 466.302C504.419 465.375 504.469 464.429 504.71 463.522C504.918 462.605 505.314 461.74 505.871 460.982C506.429 460.223 507.137 459.588 507.951 459.114C508.754 458.624 509.649 458.303 510.581 458.168C511.512 458.034 512.462 458.09 513.371 458.333L562.266 470.581L564.781 460.648L516.025 448.428C515.112 448.224 514.251 447.834 513.496 447.282C512.741 446.73 512.109 446.028 511.639 445.22C511.133 444.424 510.801 443.53 510.666 442.597C510.531 441.664 510.596 440.713 510.856 439.807L516.835 415.953C517.061 415.043 517.464 414.188 518.022 413.435C518.581 412.683 519.283 412.048 520.088 411.568C520.894 411.088 521.786 410.772 522.715 410.639C523.643 410.505 524.589 410.557 525.497 410.791L546.228 415.981L550.475 399.24C550.681 398.296 551.08 397.403 551.647 396.62C552.215 395.837 552.939 395.179 553.774 394.689C554.608 394.199 555.536 393.887 556.497 393.772C557.459 393.658 558.433 393.743 559.36 394.023C560.261 394.231 561.108 394.624 561.849 395.177C562.589 395.729 563.207 396.429 563.663 397.232C564.157 398.027 564.484 398.915 564.623 399.841C564.763 400.767 564.712 401.711 564.473 402.616L560.226 419.356L581.461 424.685C582.392 424.907 583.269 425.316 584.037 425.887C584.806 426.458 585.45 427.178 585.931 428.005C586.44 428.789 586.782 429.669 586.936 430.591C587.09 431.513 587.052 432.456 586.825 433.362C586.592 434.292 586.175 435.165 585.6 435.932C585.024 436.698 584.301 437.342 583.472 437.826C582.647 438.339 581.726 438.678 580.765 438.822C579.804 438.965 578.824 438.912 577.884 438.663L528.961 426.415L526.503 436.292L575.23 448.484C576.162 448.706 577.038 449.115 577.807 449.686C578.575 450.257 579.219 450.977 579.701 451.804C580.239 452.591 580.602 453.483 580.766 454.422C580.93 455.36 580.891 456.323 580.651 457.245Z" fill="#407BFF"/>
<g opacity="0.7">
<path opacity="0.7" d="M580.651 457.245L574.643 481.183C574.425 482.093 574.02 482.948 573.452 483.693C572.884 484.437 572.167 485.055 571.346 485.507C570.518 486.011 569.595 486.342 568.635 486.481C567.675 486.62 566.697 486.564 565.758 486.316L544.831 481.043L540.584 497.783C540.369 498.698 539.964 499.558 539.396 500.307C538.828 501.056 538.11 501.679 537.288 502.136C536.495 502.627 535.611 502.952 534.689 503.091C533.766 503.23 532.825 503.181 531.923 502.945C530.994 502.727 530.117 502.326 529.345 501.765C528.572 501.205 527.92 500.496 527.425 499.681C526.92 498.884 526.586 497.993 526.442 497.061C526.297 496.13 526.347 495.179 526.587 494.268L530.861 477.249L509.906 472.143C508.998 471.926 508.144 471.528 507.395 470.971C506.646 470.415 506.017 469.713 505.548 468.907C505.043 468.116 504.707 467.229 504.563 466.302C504.419 465.375 504.469 464.429 504.71 463.522C504.918 462.605 505.314 461.74 505.871 460.982C506.429 460.223 507.137 459.588 507.951 459.114C508.754 458.624 509.649 458.303 510.581 458.168C511.512 458.034 512.462 458.09 513.371 458.333L562.266 470.581L564.781 460.648L516.025 448.428C515.112 448.224 514.251 447.834 513.496 447.282C512.741 446.73 512.109 446.028 511.639 445.22C511.133 444.424 510.801 443.53 510.666 442.597C510.531 441.664 510.596 440.713 510.856 439.807L516.835 415.953C517.061 415.043 517.464 414.188 518.022 413.435C518.581 412.683 519.283 412.048 520.088 411.568C520.894 411.088 521.786 410.772 522.715 410.639C523.643 410.505 524.589 410.557 525.497 410.791L546.228 415.981L550.475 399.24C550.681 398.296 551.08 397.403 551.647 396.62C552.215 395.837 552.939 395.179 553.774 394.689C554.608 394.199 555.536 393.887 556.497 393.772C557.459 393.658 558.433 393.743 559.36 394.023C560.261 394.231 561.108 394.624 561.849 395.177C562.589 395.729 563.207 396.429 563.663 397.232C564.157 398.027 564.484 398.915 564.623 399.841C564.763 400.767 564.712 401.711 564.473 402.616L560.226 419.356L581.461 424.685C582.392 424.907 583.269 425.316 584.037 425.887C584.806 426.458 585.45 427.178 585.931 428.005C586.44 428.789 586.782 429.669 586.936 430.591C587.09 431.513 587.052 432.456 586.825 433.362C586.592 434.292 586.175 435.165 585.6 435.932C585.024 436.698 584.301 437.342 583.472 437.826C582.647 438.339 581.726 438.678 580.765 438.822C579.804 438.965 578.824 438.912 577.884 438.663L528.961 426.415L526.503 436.292L575.23 448.484C576.162 448.706 577.038 449.115 577.807 449.686C578.575 450.257 579.219 450.977 579.701 451.804C580.239 452.591 580.602 453.483 580.766 454.422C580.93 455.36 580.891 456.323 580.651 457.245Z" fill="white"/>
</g>
<path d="M288.509 1085.86H285.715V1117.36H288.509V1085.86Z" fill="#407BFF"/>
<path opacity="0.1" d="M288.509 1085.86H285.715V1117.36H288.509V1085.86Z" fill="black"/>
<path d="M1111.29 836.322H1108.49V879.483H1111.29V836.322Z" fill="#407BFF"/>
<path d="M1111.29 902.11H1108.49V925.518H1111.29V902.11Z" fill="#407BFF"/>
<path opacity="0.1" d="M1111.29 836.322H1108.49V879.483H1111.29V836.322Z" fill="black"/>
<path opacity="0.1" d="M1111.29 902.11H1108.49V925.518H1111.29V902.11Z" fill="black"/>
<path d="M1059.49 649.141H337.544C314.32 649.141 295.494 667.94 295.494 691.13V1113.12C295.494 1136.31 314.32 1155.11 337.544 1155.11H1059.49C1082.71 1155.11 1101.54 1136.31 1101.54 1113.12V691.13C1101.54 667.94 1082.71 649.141 1059.49 649.141Z" fill="#407BFF"/>
<path opacity="0.2" d="M1059.49 649.141H337.544C314.32 649.141 295.494 667.94 295.494 691.13V1113.12C295.494 1136.31 314.32 1155.11 337.544 1155.11H1059.49C1082.71 1155.11 1101.54 1136.31 1101.54 1113.12V691.13C1101.54 667.94 1082.71 649.141 1059.49 649.141Z" fill="black"/>
<path opacity="0.2" d="M971.055 825.329C999.864 825.329 1023.22 802.008 1023.22 773.24C1023.22 744.472 999.864 721.15 971.055 721.15C942.245 721.15 918.891 744.472 918.891 773.24C918.891 802.008 942.245 825.329 971.055 825.329Z" fill="black"/>
<path d="M903.72 825.329C932.529 825.329 955.884 802.008 955.884 773.24C955.884 744.472 932.529 721.15 903.72 721.15C874.91 721.15 851.556 744.472 851.556 773.24C851.556 802.008 874.91 825.329 903.72 825.329Z" fill="#407BFF"/>
<path d="M516.164 825.329H391.915C381.916 825.329 373.81 833.423 373.81 843.408V924.513C373.81 934.498 381.916 942.593 391.915 942.593H516.164C526.163 942.593 534.269 934.498 534.269 924.513V843.408C534.269 833.423 526.163 825.329 516.164 825.329Z" fill="#407BFF"/>
<path opacity="0.3" d="M516.164 825.329H391.915C381.916 825.329 373.81 833.423 373.81 843.408V924.513C373.81 934.498 381.916 942.593 391.915 942.593H516.164C526.163 942.593 534.269 934.498 534.269 924.513V843.408C534.269 833.423 526.163 825.329 516.164 825.329Z" fill="white"/>
<path d="M602.135 708.372H386.634C379.551 708.372 373.81 714.099 373.81 721.164C373.81 728.229 379.551 733.956 386.634 733.956H602.135C609.218 733.956 614.96 728.229 614.96 721.164C614.96 714.099 609.218 708.372 602.135 708.372Z" fill="#407BFF"/>
<path opacity="0.3" d="M602.135 708.372H386.634C379.551 708.372 373.81 714.099 373.81 721.164C373.81 728.229 379.551 733.956 386.634 733.956H602.135C609.218 733.956 614.96 728.229 614.96 721.164C614.96 714.099 609.218 708.372 602.135 708.372Z" fill="white"/>
<path d="M489.537 1000.79H392.613C382.228 1000.79 373.81 1009.2 373.81 1019.57V1037.12C373.81 1047.49 382.228 1055.89 392.613 1055.89H489.537C499.922 1055.89 508.341 1047.49 508.341 1037.12V1019.57C508.341 1009.2 499.922 1000.79 489.537 1000.79Z" fill="#407BFF"/>
<path opacity="0.3" d="M489.537 1000.79H392.613C382.228 1000.79 373.81 1009.2 373.81 1019.57V1037.12C373.81 1047.49 382.228 1055.89 392.613 1055.89H489.537C499.922 1055.89 508.341 1047.49 508.341 1037.12V1019.57C508.341 1009.2 499.922 1000.79 489.537 1000.79Z" fill="white"/>
<path d="M661.145 1000.79H564.221C553.836 1000.79 545.417 1009.2 545.417 1019.57V1037.12C545.417 1047.49 553.836 1055.89 564.221 1055.89H661.145C671.529 1055.89 679.948 1047.49 679.948 1037.12V1019.57C679.948 1009.2 671.529 1000.79 661.145 1000.79Z" fill="#407BFF"/>
<path opacity="0.3" d="M661.145 1000.79H564.221C553.836 1000.79 545.417 1009.2 545.417 1019.57V1037.12C545.417 1047.49 553.836 1055.89 564.221 1055.89H661.145C671.529 1055.89 679.948 1047.49 679.948 1037.12V1019.57C679.948 1009.2 671.529 1000.79 661.145 1000.79Z" fill="white"/>
<path d="M832.781 1000.79H735.857C725.472 1000.79 717.054 1009.2 717.054 1019.57V1037.12C717.054 1047.49 725.472 1055.89 735.857 1055.89H832.781C843.166 1055.89 851.585 1047.49 851.585 1037.12V1019.57C851.585 1009.2 843.166 1000.79 832.781 1000.79Z" fill="#407BFF"/>
<path opacity="0.3" d="M832.781 1000.79H735.857C725.472 1000.79 717.054 1009.2 717.054 1019.57V1037.12C717.054 1047.49 725.472 1055.89 735.857 1055.89H832.781C843.166 1055.89 851.585 1047.49 851.585 1037.12V1019.57C851.585 1009.2 843.166 1000.79 832.781 1000.79Z" fill="white"/>
<path d="M1004.39 1000.79H907.464C897.079 1000.79 888.66 1009.2 888.66 1019.57V1037.12C888.66 1047.49 897.079 1055.89 907.464 1055.89H1004.39C1014.77 1055.89 1023.19 1047.49 1023.19 1037.12V1019.57C1023.19 1009.2 1014.77 1000.79 1004.39 1000.79Z" fill="#407BFF"/>
<path opacity="0.3" d="M1004.39 1000.79H907.464C897.079 1000.79 888.66 1009.2 888.66 1019.57V1037.12C888.66 1047.49 897.079 1055.89 907.464 1055.89H1004.39C1014.77 1055.89 1023.19 1047.49 1023.19 1037.12V1019.57C1023.19 1009.2 1014.77 1000.79 1004.39 1000.79Z" fill="white"/>
<path d="M818.642 466.061C812.02 484.726 804.672 502.777 796.877 520.828C788.987 539.185 779.935 557.021 769.775 574.229C768.406 576.433 766.981 578.637 765.5 580.841L764.411 582.487L762.93 584.524C761.924 585.807 760.974 586.923 760.136 588.011C756.615 591.93 752.885 595.656 748.96 599.171C741.5 606.063 733.9 612.312 726.217 618.478C710.794 630.698 695.036 642.137 678.719 652.99L668.968 640.91L710.04 600.483C716.829 593.759 723.563 586.979 729.849 580.199C732.95 576.823 735.968 573.364 738.454 570.183C739.069 569.402 739.6 568.621 740.075 567.951L740.662 567.003L741.472 565.552C742.562 563.627 743.707 561.757 744.769 559.777C753.319 543.734 760.862 526.297 768.127 508.608C775.391 490.919 782.376 473.091 789.082 455.403L818.642 466.061Z" fill="#E4897B"/>
<path d="M826.494 452.613C832.836 471.138 795.564 525.627 795.564 525.627L759.969 505.846C766.034 488.844 773.202 472.255 781.427 456.184C793.888 432.636 819.537 432.274 826.494 452.613Z" fill="#407BFF"/>
<path opacity="0.7" d="M826.494 452.613C832.836 471.138 795.564 525.627 795.564 525.627L759.969 505.846C766.034 488.844 773.202 472.255 781.427 456.184C793.888 432.636 819.537 432.274 826.494 452.613Z" fill="white"/>
<path opacity="0.31" d="M827.025 454.929C819.034 451.106 809.842 454.315 800.147 469.604C790.452 484.893 782.21 510.422 781.315 517.704L795.593 525.599C795.593 525.599 829.987 475.268 827.025 454.929Z" fill="#407BFF"/>
<path d="M802.382 438.44C802.382 438.44 775.783 500.908 794.949 617.223H905.732C907.101 600.232 899.277 517.397 918.472 437.38C906.276 435.009 893.938 433.443 881.536 432.693C865.855 431.799 850.137 431.799 834.457 432.693C823.634 433.79 812.911 435.711 802.382 438.44Z" fill="#407BFF"/>
<path opacity="0.7" d="M802.382 438.44C802.382 438.44 775.783 500.908 794.949 617.223H905.732C907.101 600.232 899.277 517.397 918.472 437.38C906.276 435.009 893.938 433.443 881.536 432.693C865.855 431.799 850.137 431.799 834.457 432.693C823.634 433.79 812.911 435.711 802.382 438.44Z" fill="white"/>
<path d="M944.959 1112.81L928.559 1127.49L897.294 1094.98L913.723 1080.31L944.959 1112.81Z" fill="#E4897B"/>
<path d="M888.717 1143.33H868.013L865.331 1095.46H886.035L888.717 1143.33Z" fill="#E4897B"/>
<path d="M897.322 1094.98L913.416 1111.75L929.844 1097.05L913.751 1080.31L897.322 1094.98Z" fill="#CE6F64"/>
<path d="M886.035 1095.46H865.331L866.728 1120.15H887.432L886.035 1095.46Z" fill="#CE6F64"/>
<path d="M794.951 617.223C794.951 617.223 773.13 768.05 765.698 850.132C759.718 916.004 902.352 1112.39 902.352 1112.39L929.929 1086.47C929.929 1086.47 825.769 910.396 833.787 837.075C841.555 766.069 867.874 617.139 867.874 617.139L794.951 617.223Z" fill="#407BFF"/>
<path opacity="0.7" d="M794.951 617.223C794.951 617.223 773.13 768.05 765.698 850.132C759.718 916.004 902.352 1112.39 902.352 1112.39L929.929 1086.47C929.929 1086.47 825.769 910.396 833.787 837.075C841.555 766.069 867.874 617.139 867.874 617.139L794.951 617.223Z" fill="black"/>
<path opacity="0.2" d="M833.787 837.158C837.783 800.582 846.724 743.275 854.407 696.347C850.384 688.479 839.096 672.548 839.096 672.548C828.982 707.451 806.993 839.028 838.369 1016.72C871.059 1069.34 902.352 1112.48 902.352 1112.48L906.627 1044.62C876.424 987.874 828.227 887.853 833.787 837.158Z" fill="black"/>
<path d="M834.346 617.223C834.346 617.223 832.391 775.276 835.743 834.508C839.403 899.348 857.844 1114.21 857.844 1114.21H895.786C895.786 1114.21 894.641 904.593 896.876 840.423C899.363 770.673 905.789 617.223 905.789 617.223H834.346Z" fill="#407BFF"/>
<path opacity="0.7" d="M834.346 617.223C834.346 617.223 832.391 775.276 835.743 834.508C839.403 899.348 857.844 1114.21 857.844 1114.21H895.786C895.786 1114.21 894.641 904.593 896.876 840.423C899.363 770.673 905.789 617.223 905.789 617.223H834.346Z" fill="black"/>
<path d="M866.923 1140.96H890.197C890.585 1140.95 890.964 1141.08 891.252 1141.35C891.539 1141.61 891.712 1141.97 891.734 1142.36L892.88 1160.74C892.883 1161.22 892.792 1161.7 892.612 1162.14C892.431 1162.59 892.165 1162.99 891.827 1163.34C891.49 1163.68 891.089 1163.95 890.646 1164.14C890.203 1164.32 889.728 1164.42 889.247 1164.43C881.145 1164.29 877.261 1163.81 867.035 1163.81C860.749 1163.81 833.982 1164.48 825.293 1164.48C816.603 1164.48 816.911 1155.89 820.515 1155.11C837.027 1151.62 857.508 1146.74 863.375 1142.22C864.386 1141.42 865.634 1140.98 866.923 1140.96Z" fill="#263238"/>
<path d="M924.033 1121.6L943.982 1108.18C944.308 1107.92 944.712 1107.78 945.128 1107.78C945.544 1107.78 945.948 1107.92 946.274 1108.18L961.529 1123.55C961.826 1123.89 962.046 1124.29 962.172 1124.72C962.298 1125.15 962.328 1125.61 962.258 1126.05C962.189 1126.5 962.023 1126.92 961.771 1127.29C961.519 1127.67 961.189 1127.98 960.802 1128.21C948.062 1138 938.869 1145.4 931.605 1153.54C923.223 1163.06 918.697 1164.43 899.139 1164.43C890.086 1164.43 884.973 1156.81 888.661 1155.64C921.239 1145.34 912.522 1140.85 920.457 1125.76C921.285 1124.1 922.514 1122.67 924.033 1121.6Z" fill="#263238"/>
<path d="M673.661 638.316L652.063 639.069L656.59 655.976C656.59 655.976 679.165 657.985 681.177 651.177L673.661 638.316Z" fill="#E4897B"/>
<path d="M628.763 649.141L643.906 657.957L656.591 655.976L652.065 639.069L628.763 649.141Z" fill="#E4897B"/>
<path opacity="0.31" d="M893.718 457.133C891.427 470.302 894.472 501.773 905.788 538.21C906.674 506.992 910.311 475.912 916.657 445.331V445.164C909.392 444.438 895.925 444.773 893.718 457.133Z" fill="#407BFF"/>
<path d="M878.713 379.738C875.221 394.86 871.281 422.592 881.507 432.748C881.507 432.748 877.093 445.275 848.929 445.275C817.972 445.275 834.429 432.748 834.429 432.748C851.472 428.73 851.472 416.203 848.929 404.457L878.713 379.738Z" fill="#E4897B"/>
<path d="M848.147 445.22L839.765 454.12L843.872 462.713L850.55 463.02L856.249 454.817L848.147 445.22Z" fill="#407BFF"/>
<path d="M866.589 389.81L848.959 404.374C849.594 407.124 849.986 409.925 850.132 412.744C856.614 411.823 865.723 404.736 866.645 397.985C867.138 395.28 867.119 392.507 866.589 389.81Z" fill="#CE6F64"/>
<path d="M841.973 328.458C831.384 332.057 822.918 360.097 835.267 367.518C847.617 374.939 862.09 321.622 841.973 328.458Z" fill="#263238"/>
<path d="M885.335 363.891C879.021 383.421 876.339 395.223 863.598 403.23C859.488 405.868 854.734 407.333 849.85 407.468C844.966 407.602 840.138 406.401 835.888 403.993C831.639 401.586 828.13 398.064 825.74 393.808C823.35 389.553 822.171 384.726 822.331 379.85C822.582 361.073 832.864 332.169 854.517 328.542C859.184 327.642 864.006 327.983 868.499 329.529C872.993 331.076 877.001 333.774 880.122 337.354C883.242 340.933 885.367 345.269 886.282 349.926C887.197 354.584 886.87 359.399 885.335 363.891Z" fill="#E4897B"/>
<path d="M900.982 331.248C894.668 346.481 909.364 333.759 905.564 351.838C903.105 363.612 881.815 391.819 873.601 389.252C865.387 386.685 865.47 366.681 875.948 352.536C881.983 344.417 868.935 335.21 839.626 336.186C810.317 337.163 792.603 320.702 831.551 308.621C831.551 308.621 817.19 316.991 825.712 319.781C837.782 324.273 913.639 300.725 900.982 331.248Z" fill="#263238"/>
<path d="M895.395 338.223C895.087 338.223 901.961 336.521 905.621 324.273C905.621 324.468 904.419 342.52 895.395 338.223Z" fill="#263238"/>
<path d="M840.549 311.327C822.528 316.907 829.988 323.185 837.448 324.747L854.547 318.051C828.563 321.483 840.549 311.327 840.549 311.327Z" fill="#263238"/>
<path d="M888.799 387.745C885.053 391.382 880.054 393.448 874.829 393.521C867.928 393.521 866.447 386.992 870.163 381.524C873.46 376.613 881.004 370.698 887.095 373.349C893.186 375.999 893.382 383.253 888.799 387.745Z" fill="#E4897B"/>
<path d="M853.512 362.803C853.093 364.421 851.891 365.593 850.718 365.314C849.544 365.035 849.125 363.556 849.544 361.938C849.963 360.32 851.165 359.148 852.338 359.455C853.512 359.762 853.931 361.185 853.512 362.803Z" fill="#263238"/>
<path d="M835.071 358.757C834.652 360.375 833.451 361.547 832.277 361.268C831.104 360.989 830.685 359.538 831.104 357.92C831.523 356.302 832.696 355.13 833.898 355.409C835.099 355.688 835.407 357.139 835.071 358.757Z" fill="#263238"/>
<path d="M840.716 360.85C837.539 365.367 833.782 369.447 829.54 372.986C830.473 374.021 831.622 374.84 832.906 375.385C834.19 375.93 835.578 376.187 836.972 376.139L840.716 360.85Z" fill="#DE5753"/>
<path d="M843.789 382.026C842.632 382.025 841.479 381.894 840.352 381.635C840.228 381.602 840.121 381.523 840.054 381.415C839.986 381.306 839.963 381.175 839.989 381.05C840.022 380.926 840.101 380.819 840.21 380.752C840.319 380.684 840.45 380.661 840.575 380.687C842.633 381.144 844.767 381.131 846.819 380.648C848.871 380.165 850.786 379.224 852.422 377.897C852.516 377.806 852.641 377.756 852.771 377.756C852.902 377.756 853.027 377.806 853.121 377.897C853.211 377.99 853.262 378.115 853.262 378.246C853.262 378.376 853.211 378.501 853.121 378.594C850.526 380.825 847.212 382.043 843.789 382.026Z" fill="#263238"/>
<path d="M860.832 358.143C860.641 358.146 860.454 358.092 860.294 357.988C860.135 357.883 860.01 357.733 859.938 357.557C859.479 356.438 858.757 355.446 857.833 354.664C856.909 353.882 855.81 353.334 854.629 353.065C854.5 353.048 854.376 353.006 854.263 352.94C854.151 352.875 854.053 352.787 853.975 352.683C853.897 352.579 853.84 352.461 853.809 352.335C853.777 352.209 853.771 352.078 853.791 351.949C853.832 351.693 853.972 351.462 854.18 351.306C854.389 351.149 854.65 351.08 854.908 351.112C856.413 351.419 857.821 352.087 859.009 353.059C860.197 354.032 861.13 355.279 861.726 356.692C861.781 356.809 861.811 356.936 861.816 357.065C861.82 357.194 861.798 357.322 861.751 357.442C861.704 357.562 861.633 357.672 861.542 357.763C861.451 357.855 861.343 357.927 861.223 357.976C861.106 358.06 860.973 358.117 860.832 358.143Z" fill="#263238"/>
<path d="M828.842 350.75C828.617 350.748 828.4 350.67 828.227 350.527C828.026 350.358 827.899 350.118 827.873 349.858C827.847 349.597 827.924 349.337 828.087 349.132C829.072 347.909 830.324 346.928 831.749 346.265C833.173 345.603 834.731 345.276 836.302 345.31C836.43 345.32 836.555 345.356 836.67 345.415C836.785 345.474 836.887 345.555 836.97 345.654C837.053 345.752 837.116 345.866 837.154 345.989C837.193 346.112 837.207 346.241 837.196 346.37C837.189 346.5 837.156 346.627 837.098 346.743C837.04 346.859 836.959 346.963 836.859 347.046C836.759 347.13 836.644 347.192 836.519 347.23C836.394 347.267 836.263 347.278 836.134 347.263C834.878 347.249 833.635 347.524 832.501 348.066C831.368 348.608 830.374 349.402 829.596 350.387C829.506 350.501 829.392 350.593 829.261 350.656C829.13 350.719 828.987 350.751 828.842 350.75Z" fill="#263238"/>
<path d="M923.838 451.636C926.017 455.012 927.833 457.998 929.677 461.234C931.521 464.47 933.281 467.595 935.014 470.832C938.422 477.277 941.635 483.861 944.569 490.585C950.723 504.35 955.342 518.749 958.344 533.523L958.623 534.946L958.763 535.643L958.958 536.815C959.196 538.376 959.317 539.952 959.321 541.53C959.294 544.174 959.013 546.808 958.483 549.398C957.537 553.67 956.171 557.838 954.404 561.841C951.267 568.856 947.528 575.587 943.228 581.957C935.101 594.071 925.859 605.401 915.623 615.8L903.469 606.063C910.231 594.289 916.964 582.069 922.608 570.1C925.383 564.376 927.754 558.465 929.705 552.411C930.502 549.886 931.045 547.288 931.326 544.655C931.423 543.793 931.423 542.923 931.326 542.06C931.326 541.809 931.326 541.586 931.158 541.558C930.99 541.53 931.158 541.558 931.158 541.419L930.99 540.861L930.655 539.717C928.889 533.563 926.791 527.509 924.369 521.582C921.91 515.527 919.172 509.501 916.294 503.503C913.416 497.504 910.315 491.589 907.13 485.674C905.565 482.717 903.916 479.788 902.268 476.886L897.351 468.516L923.838 451.636Z" fill="#E4897B"/>
<path d="M859.603 1144.53C858.209 1144.67 856.813 1144.28 855.691 1143.45C855.376 1143.1 855.154 1142.67 855.046 1142.21C854.939 1141.75 854.949 1141.28 855.077 1140.82C855.139 1140.52 855.276 1140.23 855.476 1139.99C855.676 1139.76 855.932 1139.57 856.222 1139.46C858.765 1138.45 864.604 1142.47 865.275 1142.92C865.358 1142.97 865.422 1143.04 865.457 1143.13C865.492 1143.22 865.497 1143.32 865.47 1143.42C865.456 1143.51 865.414 1143.6 865.349 1143.67C865.284 1143.74 865.2 1143.79 865.107 1143.81C863.303 1144.24 861.458 1144.48 859.603 1144.53ZM857.172 1140.26C856.978 1140.23 856.78 1140.23 856.585 1140.26C856.443 1140.32 856.318 1140.41 856.224 1140.52C856.131 1140.64 856.072 1140.78 856.055 1140.93C855.953 1141.23 855.931 1141.54 855.99 1141.84C856.048 1142.15 856.187 1142.43 856.39 1142.66C857.34 1143.61 860.05 1143.72 863.766 1143C861.79 1141.63 859.541 1140.71 857.172 1140.29V1140.26Z" fill="white"/>
<path d="M864.996 1143.84H864.744C862.677 1142.61 859.603 1138.26 860.078 1136.02C860.161 1135.61 860.38 1135.25 860.699 1134.98C861.019 1134.71 861.421 1134.56 861.839 1134.54C862.207 1134.5 862.582 1134.53 862.935 1134.65C863.287 1134.76 863.61 1134.96 863.878 1135.21C865.974 1137.25 865.499 1143.19 865.499 1143.44C865.488 1143.53 865.458 1143.61 865.409 1143.68C865.36 1143.74 865.295 1143.8 865.219 1143.84H864.996ZM862.202 1135.47H861.978C861.28 1135.47 861.112 1135.88 861.056 1136.16C860.749 1137.64 862.789 1140.91 864.577 1142.41C864.834 1140.15 864.364 1137.86 863.236 1135.88C863.095 1135.75 862.929 1135.64 862.747 1135.57C862.565 1135.5 862.37 1135.46 862.174 1135.47H862.202Z" fill="white"/>
<path d="M910.622 1132.82C910.105 1132.83 909.591 1132.74 909.113 1132.54C908.745 1132.39 908.418 1132.15 908.16 1131.85C907.902 1131.55 907.721 1131.19 907.632 1130.81C907.561 1130.57 907.552 1130.32 907.606 1130.08C907.66 1129.84 907.775 1129.62 907.94 1129.44C909.812 1127.18 919.619 1127.85 920.736 1127.93C920.84 1127.94 920.94 1127.97 921.021 1128.04C921.102 1128.1 921.159 1128.19 921.183 1128.3C921.205 1128.4 921.195 1128.5 921.155 1128.6C921.115 1128.69 921.047 1128.77 920.96 1128.83C917.84 1130.88 914.314 1132.24 910.622 1132.82ZM916.545 1128.74C913.109 1128.74 909.504 1129.08 908.694 1130.05C908.647 1130.13 908.622 1130.22 908.622 1130.3C908.622 1130.39 908.647 1130.48 908.694 1130.56C908.741 1130.8 908.847 1131.02 909.003 1131.21C909.159 1131.4 909.36 1131.55 909.588 1131.64C911.153 1132.29 914.673 1131.22 919.116 1128.85L916.545 1128.74Z" fill="white"/>
<path d="M920.707 1128.91C917.913 1128.91 911.626 1126.76 911.151 1124.53C911.151 1123.97 911.151 1123.19 912.493 1122.55C917.298 1120.29 921.014 1127.88 921.182 1128.13C921.216 1128.21 921.233 1128.29 921.233 1128.38C921.233 1128.47 921.216 1128.55 921.182 1128.63C921.136 1128.72 921.067 1128.79 920.983 1128.84C920.9 1128.89 920.804 1128.91 920.707 1128.91ZM914.253 1123.13C913.779 1123.13 913.31 1123.23 912.884 1123.44C912.297 1123.72 912.018 1124.03 912.073 1124.31C912.353 1125.62 916.879 1127.46 919.841 1127.85C918.947 1126.34 916.795 1123.13 914.253 1123.13Z" fill="white"/>
<path d="M909.001 601.543L888.493 597.944L899.082 621.799C899.082 621.799 917.886 621.799 917.048 611.978L909.001 601.543Z" fill="#E4897B"/>
<path d="M872.986 609.941L882.681 629.192L898.97 621.799L888.381 597.944L872.986 609.941Z" fill="#E4897B"/>
<path d="M931.604 1084.99L900.675 1114.07L890.7 1103.38L926.1 1071.18L931.604 1084.99Z" fill="#407BFF"/>
<path opacity="0.6" d="M931.604 1084.99L900.675 1114.07L890.7 1103.38L926.1 1071.18L931.604 1084.99Z" fill="white"/>
<path d="M897.294 1114.21H856.306L854.043 1099.81L899.278 1102.07L897.294 1114.21Z" fill="#407BFF"/>
<path opacity="0.6" d="M897.294 1114.21H856.306L854.043 1099.81L899.278 1102.07L897.294 1114.21Z" fill="white"/>
<path d="M918.473 437.38C938.031 440.17 958.064 508.022 958.064 508.022L916.154 531.235C916.154 531.235 899.138 498.983 891.008 475.044C882.486 449.962 897.546 434.311 918.473 437.38Z" fill="#407BFF"/>
<path opacity="0.7" d="M918.473 437.38C938.031 440.17 958.064 508.022 958.064 508.022L916.154 531.235C916.154 531.235 899.138 498.983 891.008 475.044C882.486 449.962 897.546 434.311 918.473 437.38Z" fill="white"/>
<path opacity="0.2" d="M848.147 445.22L839.765 454.12L843.872 462.713L850.55 463.02L856.249 454.817L848.147 445.22Z" fill="black"/>
<path d="M844.6 461.178C844.6 461.178 828.703 526.939 828.088 540.61C827.222 559.414 835.101 591.527 835.101 591.527C835.101 591.527 846.277 564.827 848.568 540.024C850.859 515.221 849.155 475.101 850.188 461.178H844.6Z" fill="#407BFF"/>
<path opacity="0.2" d="M844.6 461.178C844.6 461.178 828.703 526.939 828.088 540.61C827.222 559.414 835.101 591.527 835.101 591.527C835.101 591.527 846.277 564.827 848.568 540.024C850.859 515.221 849.155 475.101 850.188 461.178H844.6Z" fill="black"/>
<path d="M848.148 445.219C851.332 450.366 853.176 456.226 853.513 462.266C853.513 462.266 888.382 449.99 886.734 431.995C886.734 431.995 881.788 429.065 878.659 426.694C878.659 426.694 877.485 438.021 848.148 445.219Z" fill="#407BFF"/>
<path opacity="0.6" d="M848.148 445.219C851.332 450.366 853.176 456.226 853.513 462.266C853.513 462.266 888.382 449.99 886.734 431.995C886.734 431.995 881.788 429.065 878.659 426.694C878.659 426.694 877.485 438.021 848.148 445.219Z" fill="white"/>
<path d="M848.148 445.219C844.943 450.092 842.634 455.496 841.331 461.178C841.331 461.178 825.545 450.52 830.294 432.748C833.187 431.584 836.167 430.651 839.207 429.958C839.207 429.958 837.14 441.453 848.148 445.219Z" fill="#407BFF"/>
<path opacity="0.6" d="M848.148 445.219C844.943 450.092 842.634 455.496 841.331 461.178C841.331 461.178 825.545 450.52 830.294 432.748C833.187 431.584 836.167 430.651 839.207 429.958C839.207 429.958 837.14 441.453 848.148 445.219Z" fill="white"/>
</svg>
