<svg width="119" height="85" viewBox="0 0 119 85" fill="none" xmlns="http://www.w3.org/2000/svg">
<rect x="4.50586" y="0.866699" width="114.193" height="83.3303" rx="15.4315" fill="black" fill-opacity="0.63"/>
<mask id="path-2-inside-1" fill="white">
<path d="M118.698 8.27979L59.3626 50.8224L0.0268555 8.27979"/>
</mask>
<path d="M122.612 13.7389C125.627 11.5772 126.319 7.38069 124.157 4.36572C121.996 1.35075 117.799 0.659021 114.784 2.8207L122.612 13.7389ZM59.3626 50.8224L55.4485 56.2815C57.7883 57.959 60.9369 57.959 63.2767 56.2815L59.3626 50.8224ZM3.94092 2.8207C0.925948 0.659021 -3.27055 1.35075 -5.43223 4.36572C-7.59391 7.38069 -6.90218 11.5772 -3.88721 13.7389L3.94092 2.8207ZM114.784 2.8207L55.4485 45.3633L63.2767 56.2815L122.612 13.7389L114.784 2.8207ZM63.2767 45.3633L3.94092 2.8207L-3.88721 13.7389L55.4485 56.2815L63.2767 45.3633Z" fill="white" mask="url(#path-2-inside-1)"/>
</svg>
